<svg width="449" height="24" viewBox="0 0 449 24" fill="none" xmlns="http://www.w3.org/2000/svg">
<g clip-path="url(#clip0_204_1078)">
<path d="M0.448598 10.1607C0.20086 10.1607 0 10.3616 0 10.6093V13.3906C0 13.6384 0.20086 13.8392 0.448598 13.8392C0.696336 13.8392 0.897196 13.6384 0.897196 13.3906V10.6093C0.897196 10.3616 0.696336 10.1607 0.448598 10.1607Z" fill="#919EAB"/>
<path d="M2.22503 7.89532C1.97729 7.89532 1.77643 8.09618 1.77643 8.34392V15.6561C1.77643 15.9038 1.97729 16.1047 2.22503 16.1047C2.47276 16.1047 2.67362 15.9038 2.67362 15.6561V8.34392C2.67362 8.09618 2.47276 7.89532 2.22503 7.89532Z" fill="#919EAB"/>
<path d="M4.00152 8.68036C3.75378 8.68036 3.55292 8.88122 3.55292 9.12896V14.871C3.55292 15.1188 3.75378 15.3196 4.00152 15.3196C4.24925 15.3196 4.45011 15.1188 4.45011 14.871V9.12896C4.45011 8.88122 4.24925 8.68036 4.00152 8.68036Z" fill="#919EAB"/>
<path d="M5.77794 10.1607C5.53021 10.1607 5.32935 10.3616 5.32935 10.6093V13.3906C5.32935 13.6384 5.53021 13.8392 5.77794 13.8392C6.02568 13.8392 6.22654 13.6384 6.22654 13.3906V10.6093C6.22654 10.3616 6.02568 10.1607 5.77794 10.1607Z" fill="#919EAB"/>
<path d="M7.55889 6.25345C7.31115 6.25345 7.11029 6.45431 7.11029 6.70205V17.2979C7.11029 17.5457 7.31115 17.7465 7.55889 17.7465C7.80663 17.7465 8.00749 17.5457 8.00749 17.2979V6.70205C8.00749 6.45431 7.80663 6.25345 7.55889 6.25345Z" fill="#919EAB"/>
<path d="M9.33532 8.44263C9.08758 8.44263 8.88672 8.64349 8.88672 8.89123V15.1088C8.88672 15.3565 9.08758 15.5574 9.33532 15.5574C9.58306 15.5574 9.78391 15.3565 9.78391 15.1088V8.89123C9.78391 8.64349 9.58306 8.44263 9.33532 8.44263Z" fill="#919EAB"/>
<path d="M11.1028 9.19177C10.8551 9.19177 10.6542 9.39263 10.6542 9.64037V14.3596C10.6542 14.6074 10.8551 14.8082 11.1028 14.8082C11.3506 14.8082 11.5514 14.6074 11.5514 14.3596V9.64037C11.5514 9.39263 11.3506 9.19177 11.1028 9.19177Z" fill="#919EAB"/>
<path d="M12.8972 10.1607C12.6495 10.1607 12.4486 10.3616 12.4486 10.6093V13.3906C12.4486 13.6384 12.6495 13.8392 12.8972 13.8392C13.1449 13.8392 13.3458 13.6384 13.3458 13.3906V10.6093C13.3458 10.3616 13.1449 10.1607 12.8972 10.1607Z" fill="#919EAB"/>
<path d="M14.6647 9.19177C14.4169 9.19177 14.2161 9.39263 14.2161 9.64037V14.3596C14.2161 14.6074 14.4169 14.8082 14.6647 14.8082C14.9124 14.8082 15.1133 14.6074 15.1133 14.3596V9.64037C15.1133 9.39263 14.9124 9.19177 14.6647 9.19177Z" fill="#919EAB"/>
<path d="M16.4412 8.44263C16.1934 8.44263 15.9926 8.64349 15.9926 8.89123V15.1088C15.9926 15.3565 16.1934 15.5574 16.4412 15.5574C16.6889 15.5574 16.8897 15.3565 16.8897 15.1088V8.89123C16.8897 8.64349 16.6889 8.44263 16.4412 8.44263Z" fill="#919EAB"/>
<path d="M18.222 6.25345C17.9743 6.25345 17.7734 6.45431 17.7734 6.70205V17.2979C17.7734 17.5457 17.9743 17.7465 18.222 17.7465C18.4698 17.7465 18.6706 17.5457 18.6706 17.2979V6.70205C18.6706 6.45431 18.4698 6.25345 18.222 6.25345Z" fill="#919EAB"/>
<path d="M19.9985 8.68036C19.7508 8.68036 19.5499 8.88122 19.5499 9.12896V14.871C19.5499 15.1188 19.7508 15.3196 19.9985 15.3196C20.2463 15.3196 20.4471 15.1188 20.4471 14.871V9.12896C20.4471 8.88122 20.2463 8.68036 19.9985 8.68036Z" fill="#919EAB"/>
<path d="M21.775 10.1607C21.5272 10.1607 21.3264 10.3616 21.3264 10.6093V13.3906C21.3264 13.6384 21.5272 13.8392 21.775 13.8392C22.0227 13.8392 22.2236 13.6384 22.2236 13.3906V10.6093C22.2236 10.3616 22.0227 10.1607 21.775 10.1607Z" fill="#919EAB"/>
<path d="M23.5514 10.1607C23.3036 10.1607 23.1028 10.3616 23.1028 10.6093V13.3906C23.1028 13.6384 23.3036 13.8392 23.5514 13.8392C23.7991 13.8392 24 13.6384 24 13.3906V10.6093C24 10.3616 23.7991 10.1607 23.5514 10.1607Z" fill="#919EAB"/>
</g>
<g clip-path="url(#clip1_204_1078)">
<path d="M25.4486 10.1607C25.2009 10.1607 25 10.3616 25 10.6093V13.3906C25 13.6384 25.2009 13.8392 25.4486 13.8392C25.6963 13.8392 25.8972 13.6384 25.8972 13.3906V10.6093C25.8972 10.3616 25.6963 10.1607 25.4486 10.1607Z" fill="#919EAB"/>
<path d="M27.225 7.89532C26.9773 7.89532 26.7764 8.09618 26.7764 8.34392V15.6561C26.7764 15.9038 26.9773 16.1047 27.225 16.1047C27.4728 16.1047 27.6736 15.9038 27.6736 15.6561V8.34392C27.6736 8.09618 27.4728 7.89532 27.225 7.89532Z" fill="#919EAB"/>
<path d="M29.0015 8.68036C28.7538 8.68036 28.5529 8.88122 28.5529 9.12896V14.871C28.5529 15.1188 28.7538 15.3196 29.0015 15.3196C29.2493 15.3196 29.4501 15.1188 29.4501 14.871V9.12896C29.4501 8.88122 29.2493 8.68036 29.0015 8.68036Z" fill="#919EAB"/>
<path d="M30.7779 10.1607C30.5302 10.1607 30.3293 10.3616 30.3293 10.6093V13.3906C30.3293 13.6384 30.5302 13.8392 30.7779 13.8392C31.0257 13.8392 31.2265 13.6384 31.2265 13.3906V10.6093C31.2265 10.3616 31.0257 10.1607 30.7779 10.1607Z" fill="#919EAB"/>
<path d="M32.5589 6.25345C32.3112 6.25345 32.1103 6.45431 32.1103 6.70205V17.2979C32.1103 17.5457 32.3112 17.7465 32.5589 17.7465C32.8066 17.7465 33.0075 17.5457 33.0075 17.2979V6.70205C33.0075 6.45431 32.8066 6.25345 32.5589 6.25345Z" fill="#919EAB"/>
<path d="M34.3353 8.44263C34.0876 8.44263 33.8867 8.64349 33.8867 8.89123V15.1088C33.8867 15.3565 34.0876 15.5574 34.3353 15.5574C34.5831 15.5574 34.7839 15.3565 34.7839 15.1088V8.89123C34.7839 8.64349 34.5831 8.44263 34.3353 8.44263Z" fill="#919EAB"/>
<path d="M36.1028 9.19177C35.8551 9.19177 35.6542 9.39263 35.6542 9.64037V14.3596C35.6542 14.6074 35.8551 14.8082 36.1028 14.8082C36.3506 14.8082 36.5514 14.6074 36.5514 14.3596V9.64037C36.5514 9.39263 36.3506 9.19177 36.1028 9.19177Z" fill="#919EAB"/>
<path d="M37.8972 10.1607C37.6495 10.1607 37.4486 10.3616 37.4486 10.6093V13.3906C37.4486 13.6384 37.6495 13.8392 37.8972 13.8392C38.1449 13.8392 38.3458 13.6384 38.3458 13.3906V10.6093C38.3458 10.3616 38.1449 10.1607 37.8972 10.1607Z" fill="#919EAB"/>
<path d="M39.6647 9.19177C39.4169 9.19177 39.2161 9.39263 39.2161 9.64037V14.3596C39.2161 14.6074 39.4169 14.8082 39.6647 14.8082C39.9124 14.8082 40.1133 14.6074 40.1133 14.3596V9.64037C40.1133 9.39263 39.9124 9.19177 39.6647 9.19177Z" fill="#919EAB"/>
<path d="M41.4412 8.44263C41.1934 8.44263 40.9926 8.64349 40.9926 8.89123V15.1088C40.9926 15.3565 41.1934 15.5574 41.4412 15.5574C41.6889 15.5574 41.8897 15.3565 41.8897 15.1088V8.89123C41.8897 8.64349 41.6889 8.44263 41.4412 8.44263Z" fill="#919EAB"/>
<path d="M43.222 6.25345C42.9743 6.25345 42.7734 6.45431 42.7734 6.70205V17.2979C42.7734 17.5457 42.9743 17.7465 43.222 17.7465C43.4698 17.7465 43.6706 17.5457 43.6706 17.2979V6.70205C43.6706 6.45431 43.4698 6.25345 43.222 6.25345Z" fill="#919EAB"/>
<path d="M44.9985 8.68036C44.7508 8.68036 44.5499 8.88122 44.5499 9.12896V14.871C44.5499 15.1188 44.7508 15.3196 44.9985 15.3196C45.2463 15.3196 45.4471 15.1188 45.4471 14.871V9.12896C45.4471 8.88122 45.2463 8.68036 44.9985 8.68036Z" fill="#919EAB"/>
<path d="M46.775 10.1607C46.5272 10.1607 46.3264 10.3616 46.3264 10.6093V13.3906C46.3264 13.6384 46.5272 13.8392 46.775 13.8392C47.0227 13.8392 47.2236 13.6384 47.2236 13.3906V10.6093C47.2236 10.3616 47.0227 10.1607 46.775 10.1607Z" fill="#919EAB"/>
<path d="M48.5514 10.1607C48.3036 10.1607 48.1028 10.3616 48.1028 10.6093V13.3906C48.1028 13.6384 48.3036 13.8392 48.5514 13.8392C48.7991 13.8392 49 13.6384 49 13.3906V10.6093C49 10.3616 48.7991 10.1607 48.5514 10.1607Z" fill="#919EAB"/>
</g>
<g clip-path="url(#clip2_204_1078)">
<path d="M50.4486 10.1607C50.2009 10.1607 50 10.3616 50 10.6093V13.3906C50 13.6384 50.2009 13.8392 50.4486 13.8392C50.6963 13.8392 50.8972 13.6384 50.8972 13.3906V10.6093C50.8972 10.3616 50.6963 10.1607 50.4486 10.1607Z" fill="#919EAB"/>
<path d="M52.225 7.89532C51.9773 7.89532 51.7764 8.09618 51.7764 8.34392V15.6561C51.7764 15.9038 51.9773 16.1047 52.225 16.1047C52.4728 16.1047 52.6736 15.9038 52.6736 15.6561V8.34392C52.6736 8.09618 52.4728 7.89532 52.225 7.89532Z" fill="#919EAB"/>
<path d="M54.0015 8.68036C53.7538 8.68036 53.5529 8.88122 53.5529 9.12896V14.871C53.5529 15.1188 53.7538 15.3196 54.0015 15.3196C54.2493 15.3196 54.4501 15.1188 54.4501 14.871V9.12896C54.4501 8.88122 54.2493 8.68036 54.0015 8.68036Z" fill="#919EAB"/>
<path d="M55.7779 10.1607C55.5302 10.1607 55.3293 10.3616 55.3293 10.6093V13.3906C55.3293 13.6384 55.5302 13.8392 55.7779 13.8392C56.0257 13.8392 56.2265 13.6384 56.2265 13.3906V10.6093C56.2265 10.3616 56.0257 10.1607 55.7779 10.1607Z" fill="#919EAB"/>
<path d="M57.5589 6.25345C57.3112 6.25345 57.1103 6.45431 57.1103 6.70205V17.2979C57.1103 17.5457 57.3112 17.7465 57.5589 17.7465C57.8066 17.7465 58.0075 17.5457 58.0075 17.2979V6.70205C58.0075 6.45431 57.8066 6.25345 57.5589 6.25345Z" fill="#919EAB"/>
<path d="M59.3353 8.44263C59.0876 8.44263 58.8867 8.64349 58.8867 8.89123V15.1088C58.8867 15.3565 59.0876 15.5574 59.3353 15.5574C59.5831 15.5574 59.7839 15.3565 59.7839 15.1088V8.89123C59.7839 8.64349 59.5831 8.44263 59.3353 8.44263Z" fill="#919EAB"/>
<path d="M61.1028 9.19177C60.8551 9.19177 60.6542 9.39263 60.6542 9.64037V14.3596C60.6542 14.6074 60.8551 14.8082 61.1028 14.8082C61.3506 14.8082 61.5514 14.6074 61.5514 14.3596V9.64037C61.5514 9.39263 61.3506 9.19177 61.1028 9.19177Z" fill="#919EAB"/>
<path d="M62.8972 10.1607C62.6495 10.1607 62.4486 10.3616 62.4486 10.6093V13.3906C62.4486 13.6384 62.6495 13.8392 62.8972 13.8392C63.1449 13.8392 63.3458 13.6384 63.3458 13.3906V10.6093C63.3458 10.3616 63.1449 10.1607 62.8972 10.1607Z" fill="#919EAB"/>
<path d="M64.6647 9.19177C64.4169 9.19177 64.2161 9.39263 64.2161 9.64037V14.3596C64.2161 14.6074 64.4169 14.8082 64.6647 14.8082C64.9124 14.8082 65.1133 14.6074 65.1133 14.3596V9.64037C65.1133 9.39263 64.9124 9.19177 64.6647 9.19177Z" fill="#919EAB"/>
<path d="M66.4412 8.44263C66.1934 8.44263 65.9926 8.64349 65.9926 8.89123V15.1088C65.9926 15.3565 66.1934 15.5574 66.4412 15.5574C66.6889 15.5574 66.8897 15.3565 66.8897 15.1088V8.89123C66.8897 8.64349 66.6889 8.44263 66.4412 8.44263Z" fill="#919EAB"/>
<path d="M68.222 6.25345C67.9743 6.25345 67.7734 6.45431 67.7734 6.70205V17.2979C67.7734 17.5457 67.9743 17.7465 68.222 17.7465C68.4698 17.7465 68.6706 17.5457 68.6706 17.2979V6.70205C68.6706 6.45431 68.4698 6.25345 68.222 6.25345Z" fill="#919EAB"/>
<path d="M69.9985 8.68036C69.7508 8.68036 69.5499 8.88122 69.5499 9.12896V14.871C69.5499 15.1188 69.7508 15.3196 69.9985 15.3196C70.2463 15.3196 70.4471 15.1188 70.4471 14.871V9.12896C70.4471 8.88122 70.2463 8.68036 69.9985 8.68036Z" fill="#919EAB"/>
<path d="M71.775 10.1607C71.5272 10.1607 71.3264 10.3616 71.3264 10.6093V13.3906C71.3264 13.6384 71.5272 13.8392 71.775 13.8392C72.0227 13.8392 72.2236 13.6384 72.2236 13.3906V10.6093C72.2236 10.3616 72.0227 10.1607 71.775 10.1607Z" fill="#919EAB"/>
<path d="M73.5514 10.1607C73.3036 10.1607 73.1028 10.3616 73.1028 10.6093V13.3906C73.1028 13.6384 73.3036 13.8392 73.5514 13.8392C73.7991 13.8392 74 13.6384 74 13.3906V10.6093C74 10.3616 73.7991 10.1607 73.5514 10.1607Z" fill="#919EAB"/>
</g>
<g clip-path="url(#clip3_204_1078)">
<path d="M75.4486 10.1607C75.2009 10.1607 75 10.3616 75 10.6093V13.3906C75 13.6384 75.2009 13.8392 75.4486 13.8392C75.6963 13.8392 75.8972 13.6384 75.8972 13.3906V10.6093C75.8972 10.3616 75.6963 10.1607 75.4486 10.1607Z" fill="#919EAB"/>
<path d="M77.225 7.89532C76.9773 7.89532 76.7764 8.09618 76.7764 8.34392V15.6561C76.7764 15.9038 76.9773 16.1047 77.225 16.1047C77.4728 16.1047 77.6736 15.9038 77.6736 15.6561V8.34392C77.6736 8.09618 77.4728 7.89532 77.225 7.89532Z" fill="#919EAB"/>
<path d="M79.0015 8.68036C78.7538 8.68036 78.5529 8.88122 78.5529 9.12896V14.871C78.5529 15.1188 78.7538 15.3196 79.0015 15.3196C79.2493 15.3196 79.4501 15.1188 79.4501 14.871V9.12896C79.4501 8.88122 79.2493 8.68036 79.0015 8.68036Z" fill="#919EAB"/>
<path d="M80.7779 10.1607C80.5302 10.1607 80.3293 10.3616 80.3293 10.6093V13.3906C80.3293 13.6384 80.5302 13.8392 80.7779 13.8392C81.0257 13.8392 81.2265 13.6384 81.2265 13.3906V10.6093C81.2265 10.3616 81.0257 10.1607 80.7779 10.1607Z" fill="#919EAB"/>
<path d="M82.5589 6.25345C82.3112 6.25345 82.1103 6.45431 82.1103 6.70205V17.2979C82.1103 17.5457 82.3112 17.7465 82.5589 17.7465C82.8066 17.7465 83.0075 17.5457 83.0075 17.2979V6.70205C83.0075 6.45431 82.8066 6.25345 82.5589 6.25345Z" fill="#919EAB"/>
<path d="M84.3353 8.44263C84.0876 8.44263 83.8867 8.64349 83.8867 8.89123V15.1088C83.8867 15.3565 84.0876 15.5574 84.3353 15.5574C84.5831 15.5574 84.7839 15.3565 84.7839 15.1088V8.89123C84.7839 8.64349 84.5831 8.44263 84.3353 8.44263Z" fill="#919EAB"/>
<path d="M86.1028 9.19177C85.8551 9.19177 85.6542 9.39263 85.6542 9.64037V14.3596C85.6542 14.6074 85.8551 14.8082 86.1028 14.8082C86.3506 14.8082 86.5514 14.6074 86.5514 14.3596V9.64037C86.5514 9.39263 86.3506 9.19177 86.1028 9.19177Z" fill="#919EAB"/>
<path d="M87.8972 10.1607C87.6495 10.1607 87.4486 10.3616 87.4486 10.6093V13.3906C87.4486 13.6384 87.6495 13.8392 87.8972 13.8392C88.1449 13.8392 88.3458 13.6384 88.3458 13.3906V10.6093C88.3458 10.3616 88.1449 10.1607 87.8972 10.1607Z" fill="#919EAB"/>
<path d="M89.6647 9.19177C89.4169 9.19177 89.2161 9.39263 89.2161 9.64037V14.3596C89.2161 14.6074 89.4169 14.8082 89.6647 14.8082C89.9124 14.8082 90.1133 14.6074 90.1133 14.3596V9.64037C90.1133 9.39263 89.9124 9.19177 89.6647 9.19177Z" fill="#919EAB"/>
<path d="M91.4412 8.44263C91.1934 8.44263 90.9926 8.64349 90.9926 8.89123V15.1088C90.9926 15.3565 91.1934 15.5574 91.4412 15.5574C91.6889 15.5574 91.8897 15.3565 91.8897 15.1088V8.89123C91.8897 8.64349 91.6889 8.44263 91.4412 8.44263Z" fill="#919EAB"/>
<path d="M93.222 6.25345C92.9743 6.25345 92.7734 6.45431 92.7734 6.70205V17.2979C92.7734 17.5457 92.9743 17.7465 93.222 17.7465C93.4698 17.7465 93.6706 17.5457 93.6706 17.2979V6.70205C93.6706 6.45431 93.4698 6.25345 93.222 6.25345Z" fill="#919EAB"/>
<path d="M94.9985 8.68036C94.7508 8.68036 94.5499 8.88122 94.5499 9.12896V14.871C94.5499 15.1188 94.7508 15.3196 94.9985 15.3196C95.2463 15.3196 95.4471 15.1188 95.4471 14.871V9.12896C95.4471 8.88122 95.2463 8.68036 94.9985 8.68036Z" fill="#919EAB"/>
<path d="M96.775 10.1607C96.5272 10.1607 96.3264 10.3616 96.3264 10.6093V13.3906C96.3264 13.6384 96.5272 13.8392 96.775 13.8392C97.0227 13.8392 97.2236 13.6384 97.2236 13.3906V10.6093C97.2236 10.3616 97.0227 10.1607 96.775 10.1607Z" fill="#919EAB"/>
<path d="M98.5514 10.1607C98.3036 10.1607 98.1028 10.3616 98.1028 10.6093V13.3906C98.1028 13.6384 98.3036 13.8392 98.5514 13.8392C98.7991 13.8392 99 13.6384 99 13.3906V10.6093C99 10.3616 98.7991 10.1607 98.5514 10.1607Z" fill="#919EAB"/>
</g>
<g clip-path="url(#clip4_204_1078)">
<path d="M100.449 10.1607C100.201 10.1607 100 10.3616 100 10.6093V13.3906C100 13.6384 100.201 13.8392 100.449 13.8392C100.696 13.8392 100.897 13.6384 100.897 13.3906V10.6093C100.897 10.3616 100.696 10.1607 100.449 10.1607Z" fill="#919EAB"/>
<path d="M102.225 7.89532C101.977 7.89532 101.776 8.09618 101.776 8.34392V15.6561C101.776 15.9038 101.977 16.1047 102.225 16.1047C102.473 16.1047 102.674 15.9038 102.674 15.6561V8.34392C102.674 8.09618 102.473 7.89532 102.225 7.89532Z" fill="#919EAB"/>
<path d="M104.002 8.68036C103.754 8.68036 103.553 8.88122 103.553 9.12896V14.871C103.553 15.1188 103.754 15.3196 104.002 15.3196C104.249 15.3196 104.45 15.1188 104.45 14.871V9.12896C104.45 8.88122 104.249 8.68036 104.002 8.68036Z" fill="#919EAB"/>
<path d="M105.778 10.1607C105.53 10.1607 105.329 10.3616 105.329 10.6093V13.3906C105.329 13.6384 105.53 13.8392 105.778 13.8392C106.026 13.8392 106.227 13.6384 106.227 13.3906V10.6093C106.227 10.3616 106.026 10.1607 105.778 10.1607Z" fill="#919EAB"/>
<path d="M107.559 6.25345C107.311 6.25345 107.11 6.45431 107.11 6.70205V17.2979C107.11 17.5457 107.311 17.7465 107.559 17.7465C107.807 17.7465 108.007 17.5457 108.007 17.2979V6.70205C108.007 6.45431 107.807 6.25345 107.559 6.25345Z" fill="#919EAB"/>
<path d="M109.335 8.44263C109.088 8.44263 108.887 8.64349 108.887 8.89123V15.1088C108.887 15.3565 109.088 15.5574 109.335 15.5574C109.583 15.5574 109.784 15.3565 109.784 15.1088V8.89123C109.784 8.64349 109.583 8.44263 109.335 8.44263Z" fill="#919EAB"/>
<path d="M111.103 9.19177C110.855 9.19177 110.654 9.39263 110.654 9.64037V14.3596C110.654 14.6074 110.855 14.8082 111.103 14.8082C111.351 14.8082 111.551 14.6074 111.551 14.3596V9.64037C111.551 9.39263 111.351 9.19177 111.103 9.19177Z" fill="#919EAB"/>
<path d="M112.897 10.1607C112.649 10.1607 112.449 10.3616 112.449 10.6093V13.3906C112.449 13.6384 112.649 13.8392 112.897 13.8392C113.145 13.8392 113.346 13.6384 113.346 13.3906V10.6093C113.346 10.3616 113.145 10.1607 112.897 10.1607Z" fill="#919EAB"/>
<path d="M114.665 9.19177C114.417 9.19177 114.216 9.39263 114.216 9.64037V14.3596C114.216 14.6074 114.417 14.8082 114.665 14.8082C114.912 14.8082 115.113 14.6074 115.113 14.3596V9.64037C115.113 9.39263 114.912 9.19177 114.665 9.19177Z" fill="#919EAB"/>
<path d="M116.441 8.44263C116.193 8.44263 115.993 8.64349 115.993 8.89123V15.1088C115.993 15.3565 116.193 15.5574 116.441 15.5574C116.689 15.5574 116.89 15.3565 116.89 15.1088V8.89123C116.89 8.64349 116.689 8.44263 116.441 8.44263Z" fill="#919EAB"/>
<path d="M118.222 6.25345C117.974 6.25345 117.773 6.45431 117.773 6.70205V17.2979C117.773 17.5457 117.974 17.7465 118.222 17.7465C118.47 17.7465 118.671 17.5457 118.671 17.2979V6.70205C118.671 6.45431 118.47 6.25345 118.222 6.25345Z" fill="#919EAB"/>
<path d="M119.999 8.68036C119.751 8.68036 119.55 8.88122 119.55 9.12896V14.871C119.55 15.1188 119.751 15.3196 119.999 15.3196C120.246 15.3196 120.447 15.1188 120.447 14.871V9.12896C120.447 8.88122 120.246 8.68036 119.999 8.68036Z" fill="#919EAB"/>
<path d="M121.775 10.1607C121.527 10.1607 121.326 10.3616 121.326 10.6093V13.3906C121.326 13.6384 121.527 13.8392 121.775 13.8392C122.023 13.8392 122.224 13.6384 122.224 13.3906V10.6093C122.224 10.3616 122.023 10.1607 121.775 10.1607Z" fill="#919EAB"/>
<path d="M123.551 10.1607C123.304 10.1607 123.103 10.3616 123.103 10.6093V13.3906C123.103 13.6384 123.304 13.8392 123.551 13.8392C123.799 13.8392 124 13.6384 124 13.3906V10.6093C124 10.3616 123.799 10.1607 123.551 10.1607Z" fill="#919EAB"/>
</g>
<g clip-path="url(#clip5_204_1078)">
<path d="M125.449 10.1607C125.201 10.1607 125 10.3616 125 10.6093V13.3906C125 13.6384 125.201 13.8392 125.449 13.8392C125.696 13.8392 125.897 13.6384 125.897 13.3906V10.6093C125.897 10.3616 125.696 10.1607 125.449 10.1607Z" fill="#919EAB"/>
<path d="M127.225 7.89532C126.977 7.89532 126.776 8.09618 126.776 8.34392V15.6561C126.776 15.9038 126.977 16.1047 127.225 16.1047C127.473 16.1047 127.674 15.9038 127.674 15.6561V8.34392C127.674 8.09618 127.473 7.89532 127.225 7.89532Z" fill="#919EAB"/>
<path d="M129.002 8.68036C128.754 8.68036 128.553 8.88122 128.553 9.12896V14.871C128.553 15.1188 128.754 15.3196 129.002 15.3196C129.249 15.3196 129.45 15.1188 129.45 14.871V9.12896C129.45 8.88122 129.249 8.68036 129.002 8.68036Z" fill="#919EAB"/>
<path d="M130.778 10.1607C130.53 10.1607 130.329 10.3616 130.329 10.6093V13.3906C130.329 13.6384 130.53 13.8392 130.778 13.8392C131.026 13.8392 131.227 13.6384 131.227 13.3906V10.6093C131.227 10.3616 131.026 10.1607 130.778 10.1607Z" fill="#919EAB"/>
<path d="M132.559 6.25345C132.311 6.25345 132.11 6.45431 132.11 6.70205V17.2979C132.11 17.5457 132.311 17.7465 132.559 17.7465C132.807 17.7465 133.007 17.5457 133.007 17.2979V6.70205C133.007 6.45431 132.807 6.25345 132.559 6.25345Z" fill="#919EAB"/>
<path d="M134.335 8.44263C134.088 8.44263 133.887 8.64349 133.887 8.89123V15.1088C133.887 15.3565 134.088 15.5574 134.335 15.5574C134.583 15.5574 134.784 15.3565 134.784 15.1088V8.89123C134.784 8.64349 134.583 8.44263 134.335 8.44263Z" fill="#919EAB"/>
<path d="M136.103 9.19177C135.855 9.19177 135.654 9.39263 135.654 9.64037V14.3596C135.654 14.6074 135.855 14.8082 136.103 14.8082C136.351 14.8082 136.551 14.6074 136.551 14.3596V9.64037C136.551 9.39263 136.351 9.19177 136.103 9.19177Z" fill="#919EAB"/>
<path d="M137.897 10.1607C137.649 10.1607 137.449 10.3616 137.449 10.6093V13.3906C137.449 13.6384 137.649 13.8392 137.897 13.8392C138.145 13.8392 138.346 13.6384 138.346 13.3906V10.6093C138.346 10.3616 138.145 10.1607 137.897 10.1607Z" fill="#919EAB"/>
<path d="M139.665 9.19177C139.417 9.19177 139.216 9.39263 139.216 9.64037V14.3596C139.216 14.6074 139.417 14.8082 139.665 14.8082C139.912 14.8082 140.113 14.6074 140.113 14.3596V9.64037C140.113 9.39263 139.912 9.19177 139.665 9.19177Z" fill="#919EAB"/>
<path d="M141.441 8.44263C141.193 8.44263 140.993 8.64349 140.993 8.89123V15.1088C140.993 15.3565 141.193 15.5574 141.441 15.5574C141.689 15.5574 141.89 15.3565 141.89 15.1088V8.89123C141.89 8.64349 141.689 8.44263 141.441 8.44263Z" fill="#919EAB"/>
<path d="M143.222 6.25345C142.974 6.25345 142.773 6.45431 142.773 6.70205V17.2979C142.773 17.5457 142.974 17.7465 143.222 17.7465C143.47 17.7465 143.671 17.5457 143.671 17.2979V6.70205C143.671 6.45431 143.47 6.25345 143.222 6.25345Z" fill="#919EAB"/>
<path d="M144.999 8.68036C144.751 8.68036 144.55 8.88122 144.55 9.12896V14.871C144.55 15.1188 144.751 15.3196 144.999 15.3196C145.246 15.3196 145.447 15.1188 145.447 14.871V9.12896C145.447 8.88122 145.246 8.68036 144.999 8.68036Z" fill="#919EAB"/>
<path d="M146.775 10.1607C146.527 10.1607 146.326 10.3616 146.326 10.6093V13.3906C146.326 13.6384 146.527 13.8392 146.775 13.8392C147.023 13.8392 147.224 13.6384 147.224 13.3906V10.6093C147.224 10.3616 147.023 10.1607 146.775 10.1607Z" fill="#919EAB"/>
<path d="M148.551 10.1607C148.304 10.1607 148.103 10.3616 148.103 10.6093V13.3906C148.103 13.6384 148.304 13.8392 148.551 13.8392C148.799 13.8392 149 13.6384 149 13.3906V10.6093C149 10.3616 148.799 10.1607 148.551 10.1607Z" fill="#919EAB"/>
</g>
<g clip-path="url(#clip6_204_1078)">
<path d="M150.449 10.1607C150.201 10.1607 150 10.3616 150 10.6093V13.3906C150 13.6384 150.201 13.8392 150.449 13.8392C150.696 13.8392 150.897 13.6384 150.897 13.3906V10.6093C150.897 10.3616 150.696 10.1607 150.449 10.1607Z" fill="#919EAB"/>
<path d="M152.225 7.89532C151.977 7.89532 151.776 8.09618 151.776 8.34392V15.6561C151.776 15.9038 151.977 16.1047 152.225 16.1047C152.473 16.1047 152.674 15.9038 152.674 15.6561V8.34392C152.674 8.09618 152.473 7.89532 152.225 7.89532Z" fill="#919EAB"/>
<path d="M154.002 8.68036C153.754 8.68036 153.553 8.88122 153.553 9.12896V14.871C153.553 15.1188 153.754 15.3196 154.002 15.3196C154.249 15.3196 154.45 15.1188 154.45 14.871V9.12896C154.45 8.88122 154.249 8.68036 154.002 8.68036Z" fill="#919EAB"/>
<path d="M155.778 10.1607C155.53 10.1607 155.329 10.3616 155.329 10.6093V13.3906C155.329 13.6384 155.53 13.8392 155.778 13.8392C156.026 13.8392 156.227 13.6384 156.227 13.3906V10.6093C156.227 10.3616 156.026 10.1607 155.778 10.1607Z" fill="#919EAB"/>
<path d="M157.559 6.25345C157.311 6.25345 157.11 6.45431 157.11 6.70205V17.2979C157.11 17.5457 157.311 17.7465 157.559 17.7465C157.807 17.7465 158.007 17.5457 158.007 17.2979V6.70205C158.007 6.45431 157.807 6.25345 157.559 6.25345Z" fill="#919EAB"/>
<path d="M159.335 8.44263C159.088 8.44263 158.887 8.64349 158.887 8.89123V15.1088C158.887 15.3565 159.088 15.5574 159.335 15.5574C159.583 15.5574 159.784 15.3565 159.784 15.1088V8.89123C159.784 8.64349 159.583 8.44263 159.335 8.44263Z" fill="#919EAB"/>
<path d="M161.103 9.19177C160.855 9.19177 160.654 9.39263 160.654 9.64037V14.3596C160.654 14.6074 160.855 14.8082 161.103 14.8082C161.351 14.8082 161.551 14.6074 161.551 14.3596V9.64037C161.551 9.39263 161.351 9.19177 161.103 9.19177Z" fill="#919EAB"/>
<path d="M162.897 10.1607C162.649 10.1607 162.449 10.3616 162.449 10.6093V13.3906C162.449 13.6384 162.649 13.8392 162.897 13.8392C163.145 13.8392 163.346 13.6384 163.346 13.3906V10.6093C163.346 10.3616 163.145 10.1607 162.897 10.1607Z" fill="#919EAB"/>
<path d="M164.665 9.19177C164.417 9.19177 164.216 9.39263 164.216 9.64037V14.3596C164.216 14.6074 164.417 14.8082 164.665 14.8082C164.912 14.8082 165.113 14.6074 165.113 14.3596V9.64037C165.113 9.39263 164.912 9.19177 164.665 9.19177Z" fill="#919EAB"/>
<path d="M166.441 8.44263C166.193 8.44263 165.993 8.64349 165.993 8.89123V15.1088C165.993 15.3565 166.193 15.5574 166.441 15.5574C166.689 15.5574 166.89 15.3565 166.89 15.1088V8.89123C166.89 8.64349 166.689 8.44263 166.441 8.44263Z" fill="#919EAB"/>
<path d="M168.222 6.25345C167.974 6.25345 167.773 6.45431 167.773 6.70205V17.2979C167.773 17.5457 167.974 17.7465 168.222 17.7465C168.47 17.7465 168.671 17.5457 168.671 17.2979V6.70205C168.671 6.45431 168.47 6.25345 168.222 6.25345Z" fill="#919EAB"/>
<path d="M169.999 8.68036C169.751 8.68036 169.55 8.88122 169.55 9.12896V14.871C169.55 15.1188 169.751 15.3196 169.999 15.3196C170.246 15.3196 170.447 15.1188 170.447 14.871V9.12896C170.447 8.88122 170.246 8.68036 169.999 8.68036Z" fill="#919EAB"/>
<path d="M171.775 10.1607C171.527 10.1607 171.326 10.3616 171.326 10.6093V13.3906C171.326 13.6384 171.527 13.8392 171.775 13.8392C172.023 13.8392 172.224 13.6384 172.224 13.3906V10.6093C172.224 10.3616 172.023 10.1607 171.775 10.1607Z" fill="#919EAB"/>
<path d="M173.551 10.1607C173.304 10.1607 173.103 10.3616 173.103 10.6093V13.3906C173.103 13.6384 173.304 13.8392 173.551 13.8392C173.799 13.8392 174 13.6384 174 13.3906V10.6093C174 10.3616 173.799 10.1607 173.551 10.1607Z" fill="#919EAB"/>
</g>
<g clip-path="url(#clip7_204_1078)">
<path d="M175.449 10.1607C175.201 10.1607 175 10.3616 175 10.6093V13.3906C175 13.6384 175.201 13.8392 175.449 13.8392C175.696 13.8392 175.897 13.6384 175.897 13.3906V10.6093C175.897 10.3616 175.696 10.1607 175.449 10.1607Z" fill="#919EAB"/>
<path d="M177.225 7.89532C176.977 7.89532 176.776 8.09618 176.776 8.34392V15.6561C176.776 15.9038 176.977 16.1047 177.225 16.1047C177.473 16.1047 177.674 15.9038 177.674 15.6561V8.34392C177.674 8.09618 177.473 7.89532 177.225 7.89532Z" fill="#919EAB"/>
<path d="M179.002 8.68036C178.754 8.68036 178.553 8.88122 178.553 9.12896V14.871C178.553 15.1188 178.754 15.3196 179.002 15.3196C179.249 15.3196 179.45 15.1188 179.45 14.871V9.12896C179.45 8.88122 179.249 8.68036 179.002 8.68036Z" fill="#919EAB"/>
<path d="M180.778 10.1607C180.53 10.1607 180.329 10.3616 180.329 10.6093V13.3906C180.329 13.6384 180.53 13.8392 180.778 13.8392C181.026 13.8392 181.227 13.6384 181.227 13.3906V10.6093C181.227 10.3616 181.026 10.1607 180.778 10.1607Z" fill="#919EAB"/>
<path d="M182.559 6.25345C182.311 6.25345 182.11 6.45431 182.11 6.70205V17.2979C182.11 17.5457 182.311 17.7465 182.559 17.7465C182.807 17.7465 183.007 17.5457 183.007 17.2979V6.70205C183.007 6.45431 182.807 6.25345 182.559 6.25345Z" fill="#919EAB"/>
<path d="M184.335 8.44263C184.088 8.44263 183.887 8.64349 183.887 8.89123V15.1088C183.887 15.3565 184.088 15.5574 184.335 15.5574C184.583 15.5574 184.784 15.3565 184.784 15.1088V8.89123C184.784 8.64349 184.583 8.44263 184.335 8.44263Z" fill="#919EAB"/>
<path d="M186.103 9.19177C185.855 9.19177 185.654 9.39263 185.654 9.64037V14.3596C185.654 14.6074 185.855 14.8082 186.103 14.8082C186.351 14.8082 186.551 14.6074 186.551 14.3596V9.64037C186.551 9.39263 186.351 9.19177 186.103 9.19177Z" fill="#919EAB"/>
<path d="M187.897 10.1607C187.649 10.1607 187.449 10.3616 187.449 10.6093V13.3906C187.449 13.6384 187.649 13.8392 187.897 13.8392C188.145 13.8392 188.346 13.6384 188.346 13.3906V10.6093C188.346 10.3616 188.145 10.1607 187.897 10.1607Z" fill="#919EAB"/>
<path d="M189.665 9.19177C189.417 9.19177 189.216 9.39263 189.216 9.64037V14.3596C189.216 14.6074 189.417 14.8082 189.665 14.8082C189.912 14.8082 190.113 14.6074 190.113 14.3596V9.64037C190.113 9.39263 189.912 9.19177 189.665 9.19177Z" fill="#919EAB"/>
<path d="M191.441 8.44263C191.193 8.44263 190.993 8.64349 190.993 8.89123V15.1088C190.993 15.3565 191.193 15.5574 191.441 15.5574C191.689 15.5574 191.89 15.3565 191.89 15.1088V8.89123C191.89 8.64349 191.689 8.44263 191.441 8.44263Z" fill="#919EAB"/>
<path d="M193.222 6.25345C192.974 6.25345 192.773 6.45431 192.773 6.70205V17.2979C192.773 17.5457 192.974 17.7465 193.222 17.7465C193.47 17.7465 193.671 17.5457 193.671 17.2979V6.70205C193.671 6.45431 193.47 6.25345 193.222 6.25345Z" fill="#919EAB"/>
<path d="M194.999 8.68036C194.751 8.68036 194.55 8.88122 194.55 9.12896V14.871C194.55 15.1188 194.751 15.3196 194.999 15.3196C195.246 15.3196 195.447 15.1188 195.447 14.871V9.12896C195.447 8.88122 195.246 8.68036 194.999 8.68036Z" fill="#919EAB"/>
<path d="M196.775 10.1607C196.527 10.1607 196.326 10.3616 196.326 10.6093V13.3906C196.326 13.6384 196.527 13.8392 196.775 13.8392C197.023 13.8392 197.224 13.6384 197.224 13.3906V10.6093C197.224 10.3616 197.023 10.1607 196.775 10.1607Z" fill="#919EAB"/>
<path d="M198.551 10.1607C198.304 10.1607 198.103 10.3616 198.103 10.6093V13.3906C198.103 13.6384 198.304 13.8392 198.551 13.8392C198.799 13.8392 199 13.6384 199 13.3906V10.6093C199 10.3616 198.799 10.1607 198.551 10.1607Z" fill="#919EAB"/>
</g>
<g clip-path="url(#clip8_204_1078)">
<path d="M200.449 10.1607C200.201 10.1607 200 10.3616 200 10.6093V13.3906C200 13.6384 200.201 13.8392 200.449 13.8392C200.696 13.8392 200.897 13.6384 200.897 13.3906V10.6093C200.897 10.3616 200.696 10.1607 200.449 10.1607Z" fill="#919EAB"/>
<path d="M202.225 7.89532C201.977 7.89532 201.776 8.09618 201.776 8.34392V15.6561C201.776 15.9038 201.977 16.1047 202.225 16.1047C202.473 16.1047 202.674 15.9038 202.674 15.6561V8.34392C202.674 8.09618 202.473 7.89532 202.225 7.89532Z" fill="#919EAB"/>
<path d="M204.002 8.68036C203.754 8.68036 203.553 8.88122 203.553 9.12896V14.871C203.553 15.1188 203.754 15.3196 204.002 15.3196C204.249 15.3196 204.45 15.1188 204.45 14.871V9.12896C204.45 8.88122 204.249 8.68036 204.002 8.68036Z" fill="#919EAB"/>
<path d="M205.778 10.1607C205.53 10.1607 205.329 10.3616 205.329 10.6093V13.3906C205.329 13.6384 205.53 13.8392 205.778 13.8392C206.026 13.8392 206.227 13.6384 206.227 13.3906V10.6093C206.227 10.3616 206.026 10.1607 205.778 10.1607Z" fill="#919EAB"/>
<path d="M207.559 6.25345C207.311 6.25345 207.11 6.45431 207.11 6.70205V17.2979C207.11 17.5457 207.311 17.7465 207.559 17.7465C207.807 17.7465 208.007 17.5457 208.007 17.2979V6.70205C208.007 6.45431 207.807 6.25345 207.559 6.25345Z" fill="#919EAB"/>
<path d="M209.335 8.44263C209.088 8.44263 208.887 8.64349 208.887 8.89123V15.1088C208.887 15.3565 209.088 15.5574 209.335 15.5574C209.583 15.5574 209.784 15.3565 209.784 15.1088V8.89123C209.784 8.64349 209.583 8.44263 209.335 8.44263Z" fill="#919EAB"/>
<path d="M211.103 9.19177C210.855 9.19177 210.654 9.39263 210.654 9.64037V14.3596C210.654 14.6074 210.855 14.8082 211.103 14.8082C211.351 14.8082 211.551 14.6074 211.551 14.3596V9.64037C211.551 9.39263 211.351 9.19177 211.103 9.19177Z" fill="#919EAB"/>
<path d="M212.897 10.1607C212.649 10.1607 212.449 10.3616 212.449 10.6093V13.3906C212.449 13.6384 212.649 13.8392 212.897 13.8392C213.145 13.8392 213.346 13.6384 213.346 13.3906V10.6093C213.346 10.3616 213.145 10.1607 212.897 10.1607Z" fill="#919EAB"/>
<path d="M214.665 9.19177C214.417 9.19177 214.216 9.39263 214.216 9.64037V14.3596C214.216 14.6074 214.417 14.8082 214.665 14.8082C214.912 14.8082 215.113 14.6074 215.113 14.3596V9.64037C215.113 9.39263 214.912 9.19177 214.665 9.19177Z" fill="#919EAB"/>
<path d="M216.441 8.44263C216.193 8.44263 215.993 8.64349 215.993 8.89123V15.1088C215.993 15.3565 216.193 15.5574 216.441 15.5574C216.689 15.5574 216.89 15.3565 216.89 15.1088V8.89123C216.89 8.64349 216.689 8.44263 216.441 8.44263Z" fill="#919EAB"/>
<path d="M218.222 6.25345C217.974 6.25345 217.773 6.45431 217.773 6.70205V17.2979C217.773 17.5457 217.974 17.7465 218.222 17.7465C218.47 17.7465 218.671 17.5457 218.671 17.2979V6.70205C218.671 6.45431 218.47 6.25345 218.222 6.25345Z" fill="#919EAB"/>
<path d="M219.999 8.68036C219.751 8.68036 219.55 8.88122 219.55 9.12896V14.871C219.55 15.1188 219.751 15.3196 219.999 15.3196C220.246 15.3196 220.447 15.1188 220.447 14.871V9.12896C220.447 8.88122 220.246 8.68036 219.999 8.68036Z" fill="#919EAB"/>
<path d="M221.775 10.1607C221.527 10.1607 221.326 10.3616 221.326 10.6093V13.3906C221.326 13.6384 221.527 13.8392 221.775 13.8392C222.023 13.8392 222.224 13.6384 222.224 13.3906V10.6093C222.224 10.3616 222.023 10.1607 221.775 10.1607Z" fill="#919EAB"/>
<path d="M223.551 10.1607C223.304 10.1607 223.103 10.3616 223.103 10.6093V13.3906C223.103 13.6384 223.304 13.8392 223.551 13.8392C223.799 13.8392 224 13.6384 224 13.3906V10.6093C224 10.3616 223.799 10.1607 223.551 10.1607Z" fill="#919EAB"/>
</g>
<g clip-path="url(#clip9_204_1078)">
<path d="M225.449 10.1607C225.201 10.1607 225 10.3616 225 10.6093V13.3906C225 13.6384 225.201 13.8392 225.449 13.8392C225.696 13.8392 225.897 13.6384 225.897 13.3906V10.6093C225.897 10.3616 225.696 10.1607 225.449 10.1607Z" fill="#919EAB"/>
<path d="M227.225 7.89532C226.977 7.89532 226.776 8.09618 226.776 8.34392V15.6561C226.776 15.9038 226.977 16.1047 227.225 16.1047C227.473 16.1047 227.674 15.9038 227.674 15.6561V8.34392C227.674 8.09618 227.473 7.89532 227.225 7.89532Z" fill="#919EAB"/>
<path d="M229.002 8.68036C228.754 8.68036 228.553 8.88122 228.553 9.12896V14.871C228.553 15.1188 228.754 15.3196 229.002 15.3196C229.249 15.3196 229.45 15.1188 229.45 14.871V9.12896C229.45 8.88122 229.249 8.68036 229.002 8.68036Z" fill="#919EAB"/>
<path d="M230.778 10.1607C230.53 10.1607 230.329 10.3616 230.329 10.6093V13.3906C230.329 13.6384 230.53 13.8392 230.778 13.8392C231.026 13.8392 231.227 13.6384 231.227 13.3906V10.6093C231.227 10.3616 231.026 10.1607 230.778 10.1607Z" fill="#919EAB"/>
<path d="M232.559 6.25345C232.311 6.25345 232.11 6.45431 232.11 6.70205V17.2979C232.11 17.5457 232.311 17.7465 232.559 17.7465C232.807 17.7465 233.007 17.5457 233.007 17.2979V6.70205C233.007 6.45431 232.807 6.25345 232.559 6.25345Z" fill="#919EAB"/>
<path d="M234.335 8.44263C234.088 8.44263 233.887 8.64349 233.887 8.89123V15.1088C233.887 15.3565 234.088 15.5574 234.335 15.5574C234.583 15.5574 234.784 15.3565 234.784 15.1088V8.89123C234.784 8.64349 234.583 8.44263 234.335 8.44263Z" fill="#919EAB"/>
<path d="M236.103 9.19177C235.855 9.19177 235.654 9.39263 235.654 9.64037V14.3596C235.654 14.6074 235.855 14.8082 236.103 14.8082C236.351 14.8082 236.551 14.6074 236.551 14.3596V9.64037C236.551 9.39263 236.351 9.19177 236.103 9.19177Z" fill="#919EAB"/>
<path d="M237.897 10.1607C237.649 10.1607 237.449 10.3616 237.449 10.6093V13.3906C237.449 13.6384 237.649 13.8392 237.897 13.8392C238.145 13.8392 238.346 13.6384 238.346 13.3906V10.6093C238.346 10.3616 238.145 10.1607 237.897 10.1607Z" fill="#919EAB"/>
<path d="M239.665 9.19177C239.417 9.19177 239.216 9.39263 239.216 9.64037V14.3596C239.216 14.6074 239.417 14.8082 239.665 14.8082C239.912 14.8082 240.113 14.6074 240.113 14.3596V9.64037C240.113 9.39263 239.912 9.19177 239.665 9.19177Z" fill="#919EAB"/>
<path d="M241.441 8.44263C241.193 8.44263 240.993 8.64349 240.993 8.89123V15.1088C240.993 15.3565 241.193 15.5574 241.441 15.5574C241.689 15.5574 241.89 15.3565 241.89 15.1088V8.89123C241.89 8.64349 241.689 8.44263 241.441 8.44263Z" fill="#919EAB"/>
<path d="M243.222 6.25345C242.974 6.25345 242.773 6.45431 242.773 6.70205V17.2979C242.773 17.5457 242.974 17.7465 243.222 17.7465C243.47 17.7465 243.671 17.5457 243.671 17.2979V6.70205C243.671 6.45431 243.47 6.25345 243.222 6.25345Z" fill="#919EAB"/>
<path d="M244.999 8.68036C244.751 8.68036 244.55 8.88122 244.55 9.12896V14.871C244.55 15.1188 244.751 15.3196 244.999 15.3196C245.246 15.3196 245.447 15.1188 245.447 14.871V9.12896C245.447 8.88122 245.246 8.68036 244.999 8.68036Z" fill="#919EAB"/>
<path d="M246.775 10.1607C246.527 10.1607 246.326 10.3616 246.326 10.6093V13.3906C246.326 13.6384 246.527 13.8392 246.775 13.8392C247.023 13.8392 247.224 13.6384 247.224 13.3906V10.6093C247.224 10.3616 247.023 10.1607 246.775 10.1607Z" fill="#919EAB"/>
<path d="M248.551 10.1607C248.304 10.1607 248.103 10.3616 248.103 10.6093V13.3906C248.103 13.6384 248.304 13.8392 248.551 13.8392C248.799 13.8392 249 13.6384 249 13.3906V10.6093C249 10.3616 248.799 10.1607 248.551 10.1607Z" fill="#919EAB"/>
</g>
<g clip-path="url(#clip10_204_1078)">
<path d="M250.449 10.1607C250.201 10.1607 250 10.3616 250 10.6093V13.3906C250 13.6384 250.201 13.8392 250.449 13.8392C250.696 13.8392 250.897 13.6384 250.897 13.3906V10.6093C250.897 10.3616 250.696 10.1607 250.449 10.1607Z" fill="#919EAB"/>
<path d="M252.225 7.89532C251.977 7.89532 251.776 8.09618 251.776 8.34392V15.6561C251.776 15.9038 251.977 16.1047 252.225 16.1047C252.473 16.1047 252.674 15.9038 252.674 15.6561V8.34392C252.674 8.09618 252.473 7.89532 252.225 7.89532Z" fill="#919EAB"/>
<path d="M254.002 8.68036C253.754 8.68036 253.553 8.88122 253.553 9.12896V14.871C253.553 15.1188 253.754 15.3196 254.002 15.3196C254.249 15.3196 254.45 15.1188 254.45 14.871V9.12896C254.45 8.88122 254.249 8.68036 254.002 8.68036Z" fill="#919EAB"/>
<path d="M255.778 10.1607C255.53 10.1607 255.329 10.3616 255.329 10.6093V13.3906C255.329 13.6384 255.53 13.8392 255.778 13.8392C256.026 13.8392 256.227 13.6384 256.227 13.3906V10.6093C256.227 10.3616 256.026 10.1607 255.778 10.1607Z" fill="#919EAB"/>
<path d="M257.559 6.25345C257.311 6.25345 257.11 6.45431 257.11 6.70205V17.2979C257.11 17.5457 257.311 17.7465 257.559 17.7465C257.807 17.7465 258.007 17.5457 258.007 17.2979V6.70205C258.007 6.45431 257.807 6.25345 257.559 6.25345Z" fill="#919EAB"/>
<path d="M259.335 8.44263C259.088 8.44263 258.887 8.64349 258.887 8.89123V15.1088C258.887 15.3565 259.088 15.5574 259.335 15.5574C259.583 15.5574 259.784 15.3565 259.784 15.1088V8.89123C259.784 8.64349 259.583 8.44263 259.335 8.44263Z" fill="#919EAB"/>
<path d="M261.103 9.19177C260.855 9.19177 260.654 9.39263 260.654 9.64037V14.3596C260.654 14.6074 260.855 14.8082 261.103 14.8082C261.351 14.8082 261.551 14.6074 261.551 14.3596V9.64037C261.551 9.39263 261.351 9.19177 261.103 9.19177Z" fill="#919EAB"/>
<path d="M262.897 10.1607C262.649 10.1607 262.449 10.3616 262.449 10.6093V13.3906C262.449 13.6384 262.649 13.8392 262.897 13.8392C263.145 13.8392 263.346 13.6384 263.346 13.3906V10.6093C263.346 10.3616 263.145 10.1607 262.897 10.1607Z" fill="#919EAB"/>
<path d="M264.665 9.19177C264.417 9.19177 264.216 9.39263 264.216 9.64037V14.3596C264.216 14.6074 264.417 14.8082 264.665 14.8082C264.912 14.8082 265.113 14.6074 265.113 14.3596V9.64037C265.113 9.39263 264.912 9.19177 264.665 9.19177Z" fill="#919EAB"/>
<path d="M266.441 8.44263C266.193 8.44263 265.993 8.64349 265.993 8.89123V15.1088C265.993 15.3565 266.193 15.5574 266.441 15.5574C266.689 15.5574 266.89 15.3565 266.89 15.1088V8.89123C266.89 8.64349 266.689 8.44263 266.441 8.44263Z" fill="#919EAB"/>
<path d="M268.222 6.25345C267.974 6.25345 267.773 6.45431 267.773 6.70205V17.2979C267.773 17.5457 267.974 17.7465 268.222 17.7465C268.47 17.7465 268.671 17.5457 268.671 17.2979V6.70205C268.671 6.45431 268.47 6.25345 268.222 6.25345Z" fill="#919EAB"/>
<path d="M269.999 8.68036C269.751 8.68036 269.55 8.88122 269.55 9.12896V14.871C269.55 15.1188 269.751 15.3196 269.999 15.3196C270.246 15.3196 270.447 15.1188 270.447 14.871V9.12896C270.447 8.88122 270.246 8.68036 269.999 8.68036Z" fill="#919EAB"/>
<path d="M271.775 10.1607C271.527 10.1607 271.326 10.3616 271.326 10.6093V13.3906C271.326 13.6384 271.527 13.8392 271.775 13.8392C272.023 13.8392 272.224 13.6384 272.224 13.3906V10.6093C272.224 10.3616 272.023 10.1607 271.775 10.1607Z" fill="#919EAB"/>
<path d="M273.551 10.1607C273.304 10.1607 273.103 10.3616 273.103 10.6093V13.3906C273.103 13.6384 273.304 13.8392 273.551 13.8392C273.799 13.8392 274 13.6384 274 13.3906V10.6093C274 10.3616 273.799 10.1607 273.551 10.1607Z" fill="#919EAB"/>
</g>
<g clip-path="url(#clip11_204_1078)">
<path d="M275.449 10.1607C275.201 10.1607 275 10.3616 275 10.6093V13.3906C275 13.6384 275.201 13.8392 275.449 13.8392C275.696 13.8392 275.897 13.6384 275.897 13.3906V10.6093C275.897 10.3616 275.696 10.1607 275.449 10.1607Z" fill="#919EAB"/>
<path d="M277.225 7.89532C276.977 7.89532 276.776 8.09618 276.776 8.34392V15.6561C276.776 15.9038 276.977 16.1047 277.225 16.1047C277.473 16.1047 277.674 15.9038 277.674 15.6561V8.34392C277.674 8.09618 277.473 7.89532 277.225 7.89532Z" fill="#919EAB"/>
<path d="M279.002 8.68036C278.754 8.68036 278.553 8.88122 278.553 9.12896V14.871C278.553 15.1188 278.754 15.3196 279.002 15.3196C279.249 15.3196 279.45 15.1188 279.45 14.871V9.12896C279.45 8.88122 279.249 8.68036 279.002 8.68036Z" fill="#919EAB"/>
<path d="M280.778 10.1607C280.53 10.1607 280.329 10.3616 280.329 10.6093V13.3906C280.329 13.6384 280.53 13.8392 280.778 13.8392C281.026 13.8392 281.227 13.6384 281.227 13.3906V10.6093C281.227 10.3616 281.026 10.1607 280.778 10.1607Z" fill="#919EAB"/>
<path d="M282.559 6.25345C282.311 6.25345 282.11 6.45431 282.11 6.70205V17.2979C282.11 17.5457 282.311 17.7465 282.559 17.7465C282.807 17.7465 283.007 17.5457 283.007 17.2979V6.70205C283.007 6.45431 282.807 6.25345 282.559 6.25345Z" fill="#919EAB"/>
<path d="M284.335 8.44263C284.088 8.44263 283.887 8.64349 283.887 8.89123V15.1088C283.887 15.3565 284.088 15.5574 284.335 15.5574C284.583 15.5574 284.784 15.3565 284.784 15.1088V8.89123C284.784 8.64349 284.583 8.44263 284.335 8.44263Z" fill="#919EAB"/>
<path d="M286.103 9.19177C285.855 9.19177 285.654 9.39263 285.654 9.64037V14.3596C285.654 14.6074 285.855 14.8082 286.103 14.8082C286.351 14.8082 286.551 14.6074 286.551 14.3596V9.64037C286.551 9.39263 286.351 9.19177 286.103 9.19177Z" fill="#919EAB"/>
<path d="M287.897 10.1607C287.649 10.1607 287.449 10.3616 287.449 10.6093V13.3906C287.449 13.6384 287.649 13.8392 287.897 13.8392C288.145 13.8392 288.346 13.6384 288.346 13.3906V10.6093C288.346 10.3616 288.145 10.1607 287.897 10.1607Z" fill="#919EAB"/>
<path d="M289.665 9.19177C289.417 9.19177 289.216 9.39263 289.216 9.64037V14.3596C289.216 14.6074 289.417 14.8082 289.665 14.8082C289.912 14.8082 290.113 14.6074 290.113 14.3596V9.64037C290.113 9.39263 289.912 9.19177 289.665 9.19177Z" fill="#919EAB"/>
<path d="M291.441 8.44263C291.193 8.44263 290.993 8.64349 290.993 8.89123V15.1088C290.993 15.3565 291.193 15.5574 291.441 15.5574C291.689 15.5574 291.89 15.3565 291.89 15.1088V8.89123C291.89 8.64349 291.689 8.44263 291.441 8.44263Z" fill="#919EAB"/>
<path d="M293.222 6.25345C292.974 6.25345 292.773 6.45431 292.773 6.70205V17.2979C292.773 17.5457 292.974 17.7465 293.222 17.7465C293.47 17.7465 293.671 17.5457 293.671 17.2979V6.70205C293.671 6.45431 293.47 6.25345 293.222 6.25345Z" fill="#919EAB"/>
<path d="M294.999 8.68036C294.751 8.68036 294.55 8.88122 294.55 9.12896V14.871C294.55 15.1188 294.751 15.3196 294.999 15.3196C295.246 15.3196 295.447 15.1188 295.447 14.871V9.12896C295.447 8.88122 295.246 8.68036 294.999 8.68036Z" fill="#919EAB"/>
<path d="M296.775 10.1607C296.527 10.1607 296.326 10.3616 296.326 10.6093V13.3906C296.326 13.6384 296.527 13.8392 296.775 13.8392C297.023 13.8392 297.224 13.6384 297.224 13.3906V10.6093C297.224 10.3616 297.023 10.1607 296.775 10.1607Z" fill="#919EAB"/>
<path d="M298.551 10.1607C298.304 10.1607 298.103 10.3616 298.103 10.6093V13.3906C298.103 13.6384 298.304 13.8392 298.551 13.8392C298.799 13.8392 299 13.6384 299 13.3906V10.6093C299 10.3616 298.799 10.1607 298.551 10.1607Z" fill="#919EAB"/>
</g>
<g clip-path="url(#clip12_204_1078)">
<path d="M300.449 10.1607C300.201 10.1607 300 10.3616 300 10.6093V13.3906C300 13.6384 300.201 13.8392 300.449 13.8392C300.696 13.8392 300.897 13.6384 300.897 13.3906V10.6093C300.897 10.3616 300.696 10.1607 300.449 10.1607Z" fill="#919EAB"/>
<path d="M302.225 7.89532C301.977 7.89532 301.776 8.09618 301.776 8.34392V15.6561C301.776 15.9038 301.977 16.1047 302.225 16.1047C302.473 16.1047 302.674 15.9038 302.674 15.6561V8.34392C302.674 8.09618 302.473 7.89532 302.225 7.89532Z" fill="#919EAB"/>
<path d="M304.001 8.68036C303.754 8.68036 303.553 8.88122 303.553 9.12896V14.871C303.553 15.1188 303.754 15.3196 304.001 15.3196C304.249 15.3196 304.45 15.1188 304.45 14.871V9.12896C304.45 8.88122 304.249 8.68036 304.001 8.68036Z" fill="#919EAB"/>
<path d="M305.778 10.1607C305.53 10.1607 305.329 10.3616 305.329 10.6093V13.3906C305.329 13.6384 305.53 13.8392 305.778 13.8392C306.026 13.8392 306.227 13.6384 306.227 13.3906V10.6093C306.227 10.3616 306.026 10.1607 305.778 10.1607Z" fill="#919EAB"/>
<path d="M307.559 6.25345C307.311 6.25345 307.11 6.45431 307.11 6.70205V17.2979C307.11 17.5457 307.311 17.7465 307.559 17.7465C307.807 17.7465 308.007 17.5457 308.007 17.2979V6.70205C308.007 6.45431 307.807 6.25345 307.559 6.25345Z" fill="#919EAB"/>
<path d="M309.335 8.44263C309.088 8.44263 308.887 8.64349 308.887 8.89123V15.1088C308.887 15.3565 309.088 15.5574 309.335 15.5574C309.583 15.5574 309.784 15.3565 309.784 15.1088V8.89123C309.784 8.64349 309.583 8.44263 309.335 8.44263Z" fill="#919EAB"/>
<path d="M311.103 9.19177C310.855 9.19177 310.654 9.39263 310.654 9.64037V14.3596C310.654 14.6074 310.855 14.8082 311.103 14.8082C311.351 14.8082 311.551 14.6074 311.551 14.3596V9.64037C311.551 9.39263 311.351 9.19177 311.103 9.19177Z" fill="#919EAB"/>
<path d="M312.897 10.1607C312.649 10.1607 312.449 10.3616 312.449 10.6093V13.3906C312.449 13.6384 312.649 13.8392 312.897 13.8392C313.145 13.8392 313.346 13.6384 313.346 13.3906V10.6093C313.346 10.3616 313.145 10.1607 312.897 10.1607Z" fill="#919EAB"/>
<path d="M314.665 9.19177C314.417 9.19177 314.216 9.39263 314.216 9.64037V14.3596C314.216 14.6074 314.417 14.8082 314.665 14.8082C314.912 14.8082 315.113 14.6074 315.113 14.3596V9.64037C315.113 9.39263 314.912 9.19177 314.665 9.19177Z" fill="#919EAB"/>
<path d="M316.441 8.44263C316.193 8.44263 315.993 8.64349 315.993 8.89123V15.1088C315.993 15.3565 316.193 15.5574 316.441 15.5574C316.689 15.5574 316.89 15.3565 316.89 15.1088V8.89123C316.89 8.64349 316.689 8.44263 316.441 8.44263Z" fill="#919EAB"/>
<path d="M318.222 6.25345C317.974 6.25345 317.773 6.45431 317.773 6.70205V17.2979C317.773 17.5457 317.974 17.7465 318.222 17.7465C318.47 17.7465 318.671 17.5457 318.671 17.2979V6.70205C318.671 6.45431 318.47 6.25345 318.222 6.25345Z" fill="#919EAB"/>
<path d="M319.999 8.68036C319.751 8.68036 319.55 8.88122 319.55 9.12896V14.871C319.55 15.1188 319.751 15.3196 319.999 15.3196C320.246 15.3196 320.447 15.1188 320.447 14.871V9.12896C320.447 8.88122 320.246 8.68036 319.999 8.68036Z" fill="#919EAB"/>
<path d="M321.775 10.1607C321.527 10.1607 321.326 10.3616 321.326 10.6093V13.3906C321.326 13.6384 321.527 13.8392 321.775 13.8392C322.023 13.8392 322.224 13.6384 322.224 13.3906V10.6093C322.224 10.3616 322.023 10.1607 321.775 10.1607Z" fill="#919EAB"/>
<path d="M323.551 10.1607C323.304 10.1607 323.103 10.3616 323.103 10.6093V13.3906C323.103 13.6384 323.304 13.8392 323.551 13.8392C323.799 13.8392 324 13.6384 324 13.3906V10.6093C324 10.3616 323.799 10.1607 323.551 10.1607Z" fill="#919EAB"/>
</g>
<g clip-path="url(#clip13_204_1078)">
<path d="M325.449 10.1607C325.201 10.1607 325 10.3616 325 10.6093V13.3906C325 13.6384 325.201 13.8392 325.449 13.8392C325.696 13.8392 325.897 13.6384 325.897 13.3906V10.6093C325.897 10.3616 325.696 10.1607 325.449 10.1607Z" fill="#919EAB"/>
<path d="M327.225 7.89532C326.977 7.89532 326.776 8.09618 326.776 8.34392V15.6561C326.776 15.9038 326.977 16.1047 327.225 16.1047C327.473 16.1047 327.674 15.9038 327.674 15.6561V8.34392C327.674 8.09618 327.473 7.89532 327.225 7.89532Z" fill="#919EAB"/>
<path d="M329.001 8.68036C328.754 8.68036 328.553 8.88122 328.553 9.12896V14.871C328.553 15.1188 328.754 15.3196 329.001 15.3196C329.249 15.3196 329.45 15.1188 329.45 14.871V9.12896C329.45 8.88122 329.249 8.68036 329.001 8.68036Z" fill="#919EAB"/>
<path d="M330.778 10.1607C330.53 10.1607 330.329 10.3616 330.329 10.6093V13.3906C330.329 13.6384 330.53 13.8392 330.778 13.8392C331.026 13.8392 331.227 13.6384 331.227 13.3906V10.6093C331.227 10.3616 331.026 10.1607 330.778 10.1607Z" fill="#919EAB"/>
<path d="M332.559 6.25345C332.311 6.25345 332.11 6.45431 332.11 6.70205V17.2979C332.11 17.5457 332.311 17.7465 332.559 17.7465C332.807 17.7465 333.007 17.5457 333.007 17.2979V6.70205C333.007 6.45431 332.807 6.25345 332.559 6.25345Z" fill="#919EAB"/>
<path d="M334.335 8.44263C334.088 8.44263 333.887 8.64349 333.887 8.89123V15.1088C333.887 15.3565 334.088 15.5574 334.335 15.5574C334.583 15.5574 334.784 15.3565 334.784 15.1088V8.89123C334.784 8.64349 334.583 8.44263 334.335 8.44263Z" fill="#919EAB"/>
<path d="M336.103 9.19177C335.855 9.19177 335.654 9.39263 335.654 9.64037V14.3596C335.654 14.6074 335.855 14.8082 336.103 14.8082C336.351 14.8082 336.551 14.6074 336.551 14.3596V9.64037C336.551 9.39263 336.351 9.19177 336.103 9.19177Z" fill="#919EAB"/>
<path d="M337.897 10.1607C337.649 10.1607 337.449 10.3616 337.449 10.6093V13.3906C337.449 13.6384 337.649 13.8392 337.897 13.8392C338.145 13.8392 338.346 13.6384 338.346 13.3906V10.6093C338.346 10.3616 338.145 10.1607 337.897 10.1607Z" fill="#919EAB"/>
<path d="M339.665 9.19177C339.417 9.19177 339.216 9.39263 339.216 9.64037V14.3596C339.216 14.6074 339.417 14.8082 339.665 14.8082C339.912 14.8082 340.113 14.6074 340.113 14.3596V9.64037C340.113 9.39263 339.912 9.19177 339.665 9.19177Z" fill="#919EAB"/>
<path d="M341.441 8.44263C341.193 8.44263 340.993 8.64349 340.993 8.89123V15.1088C340.993 15.3565 341.193 15.5574 341.441 15.5574C341.689 15.5574 341.89 15.3565 341.89 15.1088V8.89123C341.89 8.64349 341.689 8.44263 341.441 8.44263Z" fill="#919EAB"/>
<path d="M343.222 6.25345C342.974 6.25345 342.773 6.45431 342.773 6.70205V17.2979C342.773 17.5457 342.974 17.7465 343.222 17.7465C343.47 17.7465 343.671 17.5457 343.671 17.2979V6.70205C343.671 6.45431 343.47 6.25345 343.222 6.25345Z" fill="#919EAB"/>
<path d="M344.999 8.68036C344.751 8.68036 344.55 8.88122 344.55 9.12896V14.871C344.55 15.1188 344.751 15.3196 344.999 15.3196C345.246 15.3196 345.447 15.1188 345.447 14.871V9.12896C345.447 8.88122 345.246 8.68036 344.999 8.68036Z" fill="#919EAB"/>
<path d="M346.775 10.1607C346.527 10.1607 346.326 10.3616 346.326 10.6093V13.3906C346.326 13.6384 346.527 13.8392 346.775 13.8392C347.023 13.8392 347.224 13.6384 347.224 13.3906V10.6093C347.224 10.3616 347.023 10.1607 346.775 10.1607Z" fill="#919EAB"/>
<path d="M348.551 10.1607C348.304 10.1607 348.103 10.3616 348.103 10.6093V13.3906C348.103 13.6384 348.304 13.8392 348.551 13.8392C348.799 13.8392 349 13.6384 349 13.3906V10.6093C349 10.3616 348.799 10.1607 348.551 10.1607Z" fill="#919EAB"/>
</g>
<g clip-path="url(#clip14_204_1078)">
<path d="M350.449 10.1607C350.201 10.1607 350 10.3616 350 10.6093V13.3906C350 13.6384 350.201 13.8392 350.449 13.8392C350.696 13.8392 350.897 13.6384 350.897 13.3906V10.6093C350.897 10.3616 350.696 10.1607 350.449 10.1607Z" fill="#919EAB"/>
<path d="M352.225 7.89532C351.977 7.89532 351.776 8.09618 351.776 8.34392V15.6561C351.776 15.9038 351.977 16.1047 352.225 16.1047C352.473 16.1047 352.674 15.9038 352.674 15.6561V8.34392C352.674 8.09618 352.473 7.89532 352.225 7.89532Z" fill="#919EAB"/>
<path d="M354.001 8.68036C353.754 8.68036 353.553 8.88122 353.553 9.12896V14.871C353.553 15.1188 353.754 15.3196 354.001 15.3196C354.249 15.3196 354.45 15.1188 354.45 14.871V9.12896C354.45 8.88122 354.249 8.68036 354.001 8.68036Z" fill="#919EAB"/>
<path d="M355.778 10.1607C355.53 10.1607 355.329 10.3616 355.329 10.6093V13.3906C355.329 13.6384 355.53 13.8392 355.778 13.8392C356.026 13.8392 356.227 13.6384 356.227 13.3906V10.6093C356.227 10.3616 356.026 10.1607 355.778 10.1607Z" fill="#919EAB"/>
<path d="M357.559 6.25345C357.311 6.25345 357.11 6.45431 357.11 6.70205V17.2979C357.11 17.5457 357.311 17.7465 357.559 17.7465C357.807 17.7465 358.007 17.5457 358.007 17.2979V6.70205C358.007 6.45431 357.807 6.25345 357.559 6.25345Z" fill="#919EAB"/>
<path d="M359.335 8.44263C359.088 8.44263 358.887 8.64349 358.887 8.89123V15.1088C358.887 15.3565 359.088 15.5574 359.335 15.5574C359.583 15.5574 359.784 15.3565 359.784 15.1088V8.89123C359.784 8.64349 359.583 8.44263 359.335 8.44263Z" fill="#919EAB"/>
<path d="M361.103 9.19177C360.855 9.19177 360.654 9.39263 360.654 9.64037V14.3596C360.654 14.6074 360.855 14.8082 361.103 14.8082C361.351 14.8082 361.551 14.6074 361.551 14.3596V9.64037C361.551 9.39263 361.351 9.19177 361.103 9.19177Z" fill="#919EAB"/>
<path d="M362.897 10.1607C362.649 10.1607 362.449 10.3616 362.449 10.6093V13.3906C362.449 13.6384 362.649 13.8392 362.897 13.8392C363.145 13.8392 363.346 13.6384 363.346 13.3906V10.6093C363.346 10.3616 363.145 10.1607 362.897 10.1607Z" fill="#919EAB"/>
<path d="M364.665 9.19177C364.417 9.19177 364.216 9.39263 364.216 9.64037V14.3596C364.216 14.6074 364.417 14.8082 364.665 14.8082C364.912 14.8082 365.113 14.6074 365.113 14.3596V9.64037C365.113 9.39263 364.912 9.19177 364.665 9.19177Z" fill="#919EAB"/>
<path d="M366.441 8.44263C366.193 8.44263 365.993 8.64349 365.993 8.89123V15.1088C365.993 15.3565 366.193 15.5574 366.441 15.5574C366.689 15.5574 366.89 15.3565 366.89 15.1088V8.89123C366.89 8.64349 366.689 8.44263 366.441 8.44263Z" fill="#919EAB"/>
<path d="M368.222 6.25345C367.974 6.25345 367.773 6.45431 367.773 6.70205V17.2979C367.773 17.5457 367.974 17.7465 368.222 17.7465C368.47 17.7465 368.671 17.5457 368.671 17.2979V6.70205C368.671 6.45431 368.47 6.25345 368.222 6.25345Z" fill="#919EAB"/>
<path d="M369.999 8.68036C369.751 8.68036 369.55 8.88122 369.55 9.12896V14.871C369.55 15.1188 369.751 15.3196 369.999 15.3196C370.246 15.3196 370.447 15.1188 370.447 14.871V9.12896C370.447 8.88122 370.246 8.68036 369.999 8.68036Z" fill="#919EAB"/>
<path d="M371.775 10.1607C371.527 10.1607 371.326 10.3616 371.326 10.6093V13.3906C371.326 13.6384 371.527 13.8392 371.775 13.8392C372.023 13.8392 372.224 13.6384 372.224 13.3906V10.6093C372.224 10.3616 372.023 10.1607 371.775 10.1607Z" fill="#919EAB"/>
<path d="M373.551 10.1607C373.304 10.1607 373.103 10.3616 373.103 10.6093V13.3906C373.103 13.6384 373.304 13.8392 373.551 13.8392C373.799 13.8392 374 13.6384 374 13.3906V10.6093C374 10.3616 373.799 10.1607 373.551 10.1607Z" fill="#919EAB"/>
</g>
<g clip-path="url(#clip15_204_1078)">
<path d="M375.449 10.1607C375.201 10.1607 375 10.3616 375 10.6093V13.3906C375 13.6384 375.201 13.8392 375.449 13.8392C375.696 13.8392 375.897 13.6384 375.897 13.3906V10.6093C375.897 10.3616 375.696 10.1607 375.449 10.1607Z" fill="#919EAB"/>
<path d="M377.225 7.89532C376.977 7.89532 376.776 8.09618 376.776 8.34392V15.6561C376.776 15.9038 376.977 16.1047 377.225 16.1047C377.473 16.1047 377.674 15.9038 377.674 15.6561V8.34392C377.674 8.09618 377.473 7.89532 377.225 7.89532Z" fill="#919EAB"/>
<path d="M379.001 8.68036C378.754 8.68036 378.553 8.88122 378.553 9.12896V14.871C378.553 15.1188 378.754 15.3196 379.001 15.3196C379.249 15.3196 379.45 15.1188 379.45 14.871V9.12896C379.45 8.88122 379.249 8.68036 379.001 8.68036Z" fill="#919EAB"/>
<path d="M380.778 10.1607C380.53 10.1607 380.329 10.3616 380.329 10.6093V13.3906C380.329 13.6384 380.53 13.8392 380.778 13.8392C381.026 13.8392 381.227 13.6384 381.227 13.3906V10.6093C381.227 10.3616 381.026 10.1607 380.778 10.1607Z" fill="#919EAB"/>
<path d="M382.559 6.25345C382.311 6.25345 382.11 6.45431 382.11 6.70205V17.2979C382.11 17.5457 382.311 17.7465 382.559 17.7465C382.807 17.7465 383.007 17.5457 383.007 17.2979V6.70205C383.007 6.45431 382.807 6.25345 382.559 6.25345Z" fill="#919EAB"/>
<path d="M384.335 8.44263C384.088 8.44263 383.887 8.64349 383.887 8.89123V15.1088C383.887 15.3565 384.088 15.5574 384.335 15.5574C384.583 15.5574 384.784 15.3565 384.784 15.1088V8.89123C384.784 8.64349 384.583 8.44263 384.335 8.44263Z" fill="#919EAB"/>
<path d="M386.103 9.19177C385.855 9.19177 385.654 9.39263 385.654 9.64037V14.3596C385.654 14.6074 385.855 14.8082 386.103 14.8082C386.351 14.8082 386.551 14.6074 386.551 14.3596V9.64037C386.551 9.39263 386.351 9.19177 386.103 9.19177Z" fill="#919EAB"/>
<path d="M387.897 10.1607C387.649 10.1607 387.449 10.3616 387.449 10.6093V13.3906C387.449 13.6384 387.649 13.8392 387.897 13.8392C388.145 13.8392 388.346 13.6384 388.346 13.3906V10.6093C388.346 10.3616 388.145 10.1607 387.897 10.1607Z" fill="#919EAB"/>
<path d="M389.665 9.19177C389.417 9.19177 389.216 9.39263 389.216 9.64037V14.3596C389.216 14.6074 389.417 14.8082 389.665 14.8082C389.912 14.8082 390.113 14.6074 390.113 14.3596V9.64037C390.113 9.39263 389.912 9.19177 389.665 9.19177Z" fill="#919EAB"/>
<path d="M391.441 8.44263C391.193 8.44263 390.993 8.64349 390.993 8.89123V15.1088C390.993 15.3565 391.193 15.5574 391.441 15.5574C391.689 15.5574 391.89 15.3565 391.89 15.1088V8.89123C391.89 8.64349 391.689 8.44263 391.441 8.44263Z" fill="#919EAB"/>
<path d="M393.222 6.25345C392.974 6.25345 392.773 6.45431 392.773 6.70205V17.2979C392.773 17.5457 392.974 17.7465 393.222 17.7465C393.47 17.7465 393.671 17.5457 393.671 17.2979V6.70205C393.671 6.45431 393.47 6.25345 393.222 6.25345Z" fill="#919EAB"/>
<path d="M394.999 8.68036C394.751 8.68036 394.55 8.88122 394.55 9.12896V14.871C394.55 15.1188 394.751 15.3196 394.999 15.3196C395.246 15.3196 395.447 15.1188 395.447 14.871V9.12896C395.447 8.88122 395.246 8.68036 394.999 8.68036Z" fill="#919EAB"/>
<path d="M396.775 10.1607C396.527 10.1607 396.326 10.3616 396.326 10.6093V13.3906C396.326 13.6384 396.527 13.8392 396.775 13.8392C397.023 13.8392 397.224 13.6384 397.224 13.3906V10.6093C397.224 10.3616 397.023 10.1607 396.775 10.1607Z" fill="#919EAB"/>
<path d="M398.551 10.1607C398.304 10.1607 398.103 10.3616 398.103 10.6093V13.3906C398.103 13.6384 398.304 13.8392 398.551 13.8392C398.799 13.8392 399 13.6384 399 13.3906V10.6093C399 10.3616 398.799 10.1607 398.551 10.1607Z" fill="#919EAB"/>
</g>
<g clip-path="url(#clip16_204_1078)">
<path d="M400.449 10.1607C400.201 10.1607 400 10.3616 400 10.6093V13.3906C400 13.6384 400.201 13.8392 400.449 13.8392C400.696 13.8392 400.897 13.6384 400.897 13.3906V10.6093C400.897 10.3616 400.696 10.1607 400.449 10.1607Z" fill="#919EAB"/>
<path d="M402.225 7.89532C401.977 7.89532 401.776 8.09618 401.776 8.34392V15.6561C401.776 15.9038 401.977 16.1047 402.225 16.1047C402.473 16.1047 402.674 15.9038 402.674 15.6561V8.34392C402.674 8.09618 402.473 7.89532 402.225 7.89532Z" fill="#919EAB"/>
<path d="M404.001 8.68036C403.754 8.68036 403.553 8.88122 403.553 9.12896V14.871C403.553 15.1188 403.754 15.3196 404.001 15.3196C404.249 15.3196 404.45 15.1188 404.45 14.871V9.12896C404.45 8.88122 404.249 8.68036 404.001 8.68036Z" fill="#919EAB"/>
<path d="M405.778 10.1607C405.53 10.1607 405.329 10.3616 405.329 10.6093V13.3906C405.329 13.6384 405.53 13.8392 405.778 13.8392C406.026 13.8392 406.227 13.6384 406.227 13.3906V10.6093C406.227 10.3616 406.026 10.1607 405.778 10.1607Z" fill="#919EAB"/>
<path d="M407.559 6.25345C407.311 6.25345 407.11 6.45431 407.11 6.70205V17.2979C407.11 17.5457 407.311 17.7465 407.559 17.7465C407.807 17.7465 408.007 17.5457 408.007 17.2979V6.70205C408.007 6.45431 407.807 6.25345 407.559 6.25345Z" fill="#919EAB"/>
<path d="M409.335 8.44263C409.088 8.44263 408.887 8.64349 408.887 8.89123V15.1088C408.887 15.3565 409.088 15.5574 409.335 15.5574C409.583 15.5574 409.784 15.3565 409.784 15.1088V8.89123C409.784 8.64349 409.583 8.44263 409.335 8.44263Z" fill="#919EAB"/>
<path d="M411.103 9.19177C410.855 9.19177 410.654 9.39263 410.654 9.64037V14.3596C410.654 14.6074 410.855 14.8082 411.103 14.8082C411.351 14.8082 411.551 14.6074 411.551 14.3596V9.64037C411.551 9.39263 411.351 9.19177 411.103 9.19177Z" fill="#919EAB"/>
<path d="M412.897 10.1607C412.649 10.1607 412.449 10.3616 412.449 10.6093V13.3906C412.449 13.6384 412.649 13.8392 412.897 13.8392C413.145 13.8392 413.346 13.6384 413.346 13.3906V10.6093C413.346 10.3616 413.145 10.1607 412.897 10.1607Z" fill="#919EAB"/>
<path d="M414.665 9.19177C414.417 9.19177 414.216 9.39263 414.216 9.64037V14.3596C414.216 14.6074 414.417 14.8082 414.665 14.8082C414.912 14.8082 415.113 14.6074 415.113 14.3596V9.64037C415.113 9.39263 414.912 9.19177 414.665 9.19177Z" fill="#919EAB"/>
<path d="M416.441 8.44263C416.193 8.44263 415.993 8.64349 415.993 8.89123V15.1088C415.993 15.3565 416.193 15.5574 416.441 15.5574C416.689 15.5574 416.89 15.3565 416.89 15.1088V8.89123C416.89 8.64349 416.689 8.44263 416.441 8.44263Z" fill="#919EAB"/>
<path d="M418.222 6.25345C417.974 6.25345 417.773 6.45431 417.773 6.70205V17.2979C417.773 17.5457 417.974 17.7465 418.222 17.7465C418.47 17.7465 418.671 17.5457 418.671 17.2979V6.70205C418.671 6.45431 418.47 6.25345 418.222 6.25345Z" fill="#919EAB"/>
<path d="M419.999 8.68036C419.751 8.68036 419.55 8.88122 419.55 9.12896V14.871C419.55 15.1188 419.751 15.3196 419.999 15.3196C420.246 15.3196 420.447 15.1188 420.447 14.871V9.12896C420.447 8.88122 420.246 8.68036 419.999 8.68036Z" fill="#919EAB"/>
<path d="M421.775 10.1607C421.527 10.1607 421.326 10.3616 421.326 10.6093V13.3906C421.326 13.6384 421.527 13.8392 421.775 13.8392C422.023 13.8392 422.224 13.6384 422.224 13.3906V10.6093C422.224 10.3616 422.023 10.1607 421.775 10.1607Z" fill="#919EAB"/>
<path d="M423.551 10.1607C423.304 10.1607 423.103 10.3616 423.103 10.6093V13.3906C423.103 13.6384 423.304 13.8392 423.551 13.8392C423.799 13.8392 424 13.6384 424 13.3906V10.6093C424 10.3616 423.799 10.1607 423.551 10.1607Z" fill="#919EAB"/>
</g>
<g clip-path="url(#clip17_204_1078)">
<path d="M425.449 10.1607C425.201 10.1607 425 10.3616 425 10.6093V13.3906C425 13.6384 425.201 13.8392 425.449 13.8392C425.696 13.8392 425.897 13.6384 425.897 13.3906V10.6093C425.897 10.3616 425.696 10.1607 425.449 10.1607Z" fill="#919EAB"/>
<path d="M427.225 7.89532C426.977 7.89532 426.776 8.09618 426.776 8.34392V15.6561C426.776 15.9038 426.977 16.1047 427.225 16.1047C427.473 16.1047 427.674 15.9038 427.674 15.6561V8.34392C427.674 8.09618 427.473 7.89532 427.225 7.89532Z" fill="#919EAB"/>
<path d="M429.001 8.68036C428.754 8.68036 428.553 8.88122 428.553 9.12896V14.871C428.553 15.1188 428.754 15.3196 429.001 15.3196C429.249 15.3196 429.45 15.1188 429.45 14.871V9.12896C429.45 8.88122 429.249 8.68036 429.001 8.68036Z" fill="#919EAB"/>
<path d="M430.778 10.1607C430.53 10.1607 430.329 10.3616 430.329 10.6093V13.3906C430.329 13.6384 430.53 13.8392 430.778 13.8392C431.026 13.8392 431.227 13.6384 431.227 13.3906V10.6093C431.227 10.3616 431.026 10.1607 430.778 10.1607Z" fill="#919EAB"/>
<path d="M432.559 6.25345C432.311 6.25345 432.11 6.45431 432.11 6.70205V17.2979C432.11 17.5457 432.311 17.7465 432.559 17.7465C432.807 17.7465 433.007 17.5457 433.007 17.2979V6.70205C433.007 6.45431 432.807 6.25345 432.559 6.25345Z" fill="#919EAB"/>
<path d="M434.335 8.44263C434.088 8.44263 433.887 8.64349 433.887 8.89123V15.1088C433.887 15.3565 434.088 15.5574 434.335 15.5574C434.583 15.5574 434.784 15.3565 434.784 15.1088V8.89123C434.784 8.64349 434.583 8.44263 434.335 8.44263Z" fill="#919EAB"/>
<path d="M436.103 9.19177C435.855 9.19177 435.654 9.39263 435.654 9.64037V14.3596C435.654 14.6074 435.855 14.8082 436.103 14.8082C436.351 14.8082 436.551 14.6074 436.551 14.3596V9.64037C436.551 9.39263 436.351 9.19177 436.103 9.19177Z" fill="#919EAB"/>
<path d="M437.897 10.1607C437.649 10.1607 437.449 10.3616 437.449 10.6093V13.3906C437.449 13.6384 437.649 13.8392 437.897 13.8392C438.145 13.8392 438.346 13.6384 438.346 13.3906V10.6093C438.346 10.3616 438.145 10.1607 437.897 10.1607Z" fill="#919EAB"/>
<path d="M439.665 9.19177C439.417 9.19177 439.216 9.39263 439.216 9.64037V14.3596C439.216 14.6074 439.417 14.8082 439.665 14.8082C439.912 14.8082 440.113 14.6074 440.113 14.3596V9.64037C440.113 9.39263 439.912 9.19177 439.665 9.19177Z" fill="#919EAB"/>
<path d="M441.441 8.44263C441.193 8.44263 440.993 8.64349 440.993 8.89123V15.1088C440.993 15.3565 441.193 15.5574 441.441 15.5574C441.689 15.5574 441.89 15.3565 441.89 15.1088V8.89123C441.89 8.64349 441.689 8.44263 441.441 8.44263Z" fill="#919EAB"/>
<path d="M443.222 6.25345C442.974 6.25345 442.773 6.45431 442.773 6.70205V17.2979C442.773 17.5457 442.974 17.7465 443.222 17.7465C443.47 17.7465 443.671 17.5457 443.671 17.2979V6.70205C443.671 6.45431 443.47 6.25345 443.222 6.25345Z" fill="#919EAB"/>
<path d="M444.999 8.68036C444.751 8.68036 444.55 8.88122 444.55 9.12896V14.871C444.55 15.1188 444.751 15.3196 444.999 15.3196C445.246 15.3196 445.447 15.1188 445.447 14.871V9.12896C445.447 8.88122 445.246 8.68036 444.999 8.68036Z" fill="#919EAB"/>
<path d="M446.775 10.1607C446.527 10.1607 446.326 10.3616 446.326 10.6093V13.3906C446.326 13.6384 446.527 13.8392 446.775 13.8392C447.023 13.8392 447.224 13.6384 447.224 13.3906V10.6093C447.224 10.3616 447.023 10.1607 446.775 10.1607Z" fill="#919EAB"/>
<path d="M448.551 10.1607C448.304 10.1607 448.103 10.3616 448.103 10.6093V13.3906C448.103 13.6384 448.304 13.8392 448.551 13.8392C448.799 13.8392 449 13.6384 449 13.3906V10.6093C449 10.3616 448.799 10.1607 448.551 10.1607Z" fill="#919EAB"/>
</g>
<defs>
<clipPath id="clip0_204_1078">
<rect width="24" height="24" fill="white"/>
</clipPath>
<clipPath id="clip1_204_1078">
<rect width="24" height="24" fill="white" transform="translate(25)"/>
</clipPath>
<clipPath id="clip2_204_1078">
<rect width="24" height="24" fill="white" transform="translate(50)"/>
</clipPath>
<clipPath id="clip3_204_1078">
<rect width="24" height="24" fill="white" transform="translate(75)"/>
</clipPath>
<clipPath id="clip4_204_1078">
<rect width="24" height="24" fill="white" transform="translate(100)"/>
</clipPath>
<clipPath id="clip5_204_1078">
<rect width="24" height="24" fill="white" transform="translate(125)"/>
</clipPath>
<clipPath id="clip6_204_1078">
<rect width="24" height="24" fill="white" transform="translate(150)"/>
</clipPath>
<clipPath id="clip7_204_1078">
<rect width="24" height="24" fill="white" transform="translate(175)"/>
</clipPath>
<clipPath id="clip8_204_1078">
<rect width="24" height="24" fill="white" transform="translate(200)"/>
</clipPath>
<clipPath id="clip9_204_1078">
<rect width="24" height="24" fill="white" transform="translate(225)"/>
</clipPath>
<clipPath id="clip10_204_1078">
<rect width="24" height="24" fill="white" transform="translate(250)"/>
</clipPath>
<clipPath id="clip11_204_1078">
<rect width="24" height="24" fill="white" transform="translate(275)"/>
</clipPath>
<clipPath id="clip12_204_1078">
<rect width="24" height="24" fill="white" transform="translate(300)"/>
</clipPath>
<clipPath id="clip13_204_1078">
<rect width="24" height="24" fill="white" transform="translate(325)"/>
</clipPath>
<clipPath id="clip14_204_1078">
<rect width="24" height="24" fill="white" transform="translate(350)"/>
</clipPath>
<clipPath id="clip15_204_1078">
<rect width="24" height="24" fill="white" transform="translate(375)"/>
</clipPath>
<clipPath id="clip16_204_1078">
<rect width="24" height="24" fill="white" transform="translate(400)"/>
</clipPath>
<clipPath id="clip17_204_1078">
<rect width="24" height="24" fill="white" transform="translate(425)"/>
</clipPath>
</defs>
</svg>
