<svg width="81" height="83" viewBox="0 0 81 83" fill="none" xmlns="http://www.w3.org/2000/svg">
<path d="M21.7185 72.0391C6.9676 63.9505 8.04195 42.8837 24.4579 35.196C25.2679 34.7789 26.2331 34.4732 27.0582 34.1918C30.8058 44.7424 40.2652 54.0256 50.3147 53.2501C59.3688 52.5091 61.0453 43.23 55.3523 38.2716C48.5578 32.398 39.1895 29.0451 29.7609 30.2659C27.9931 23.382 29.1814 16.1235 35.8999 11.0861C47.2321 2.621 64.4322 8.34881 70.466 18.9176C71.0225 20.0656 72.9226 19.1829 72.3661 18.0349C65.9875 3.10088 42.3908 -1.10239 30.1427 11.9466C25.4301 17.0509 24.507 24.125 26.1348 31.0332C16.7174 33.6349 9.95744 42.1366 7.97049 51.1927C5.71485 61.6785 11.631 69.917 20.2653 74.3652C21.6318 75.0963 22.9449 72.7941 21.7185 72.0391ZM46.6162 36.7449C49.9396 38.3809 53.7588 40.6222 55.4282 44.0662C57.0824 47.3743 52.1769 49.4701 49.9512 49.9942C47.1654 50.6158 44.4325 49.154 42.2749 47.7306C37.5247 44.8213 33.0616 39.373 30.6846 33.4244C36.192 32.8838 41.8014 34.538 46.6162 36.7449Z" fill="#454F5B"/>
<path d="M27.606 77.9673C27.182 74.1698 26.4628 70.2852 25.0738 66.7933C24.4872 65.3745 22.4626 66.4167 22.9092 67.8603C23.8024 70.7469 24.0107 73.8906 24.2038 76.8987C22.3686 77.0788 20.3932 77.2833 18.5426 77.3278C17.1121 77.2994 14.9058 76.7144 13.5964 77.7711C12.9415 78.2995 13.0172 78.9776 13.3732 79.6071C14.255 81.1132 17.1955 80.6031 18.766 80.6071C21.332 80.5767 23.7273 80.2992 26.2479 79.862C27.0876 79.7163 27.6968 78.7811 27.606 77.9673Z" fill="#454F5B"/>
</svg>
