<svg width="540" height="300" viewBox="0 0 540 300" fill="none" xmlns="http://www.w3.org/2000/svg">
<rect width="540" height="300" fill="#FFF5ED"/>
<path d="M288.552 112.574L268.35 102.563V96.5933C268.35 88.5207 261.78 81.951 253.708 81.951H41.1423C33.0696 81.951 26.5 88.5207 26.5 96.5933V141.625C26.5 149.698 33.0696 156.268 41.1423 156.268H253.708C261.78 156.268 268.35 149.698 268.35 141.625V138.529L288.552 128.519C291.603 127.008 293.5 123.953 293.5 120.549C293.5 117.14 291.603 114.085 288.552 112.574ZM285.752 122.868L263.796 133.745C262.721 134.275 262.043 135.371 262.043 136.57V141.625C262.043 146.219 258.302 149.96 253.708 149.96H41.1423C36.5476 149.96 32.8068 146.219 32.8068 141.625V96.5928C32.8068 91.9981 36.5476 88.2573 41.1423 88.2573H253.708C258.302 88.2573 262.043 91.9981 262.043 96.5928V104.522C262.043 105.721 262.721 106.817 263.796 107.347L285.752 118.224C287.053 118.869 287.193 120.064 287.193 120.549C287.193 121.028 287.053 122.223 285.752 122.868Z" fill="#EF4531"/>
<path d="M229.808 119.807C231.947 117.56 233.28 114.538 233.28 111.198C233.28 104.296 227.666 98.6827 220.764 98.6827C213.854 98.6827 208.228 104.296 208.228 111.198C208.228 114.54 209.566 117.563 211.71 119.811C205.819 123.037 201.77 129.215 201.77 136.385C201.77 138.126 203.182 139.539 204.923 139.539C206.664 139.539 208.076 138.126 208.076 136.385C208.076 129.401 213.771 123.718 220.769 123.718C227.753 123.718 233.436 129.401 233.436 136.385C233.436 138.126 234.848 139.539 236.589 139.539C238.33 139.539 239.743 138.126 239.743 136.385C239.743 129.213 235.695 123.032 229.808 119.807ZM220.764 104.99C224.189 104.99 226.973 107.774 226.973 111.199C226.973 114.623 224.189 117.411 220.764 117.411C217.332 117.411 214.535 114.623 214.535 111.199C214.535 107.775 217.332 104.99 220.764 104.99Z" fill="#EF4531"/>
<path d="M182.569 105.778H58.2652C56.5241 105.778 55.1118 107.191 55.1118 108.932C55.1118 110.673 56.5241 112.085 58.2652 112.085H182.569C184.311 112.085 185.723 110.673 185.723 108.932C185.723 107.191 184.311 105.778 182.569 105.778Z" fill="#EF4531"/>
<path d="M182.569 126.137H115.636C113.894 126.137 112.482 127.549 112.482 129.29C112.482 131.031 113.894 132.443 115.636 132.443H182.569C184.31 132.443 185.723 131.031 185.723 129.29C185.723 127.549 184.31 126.137 182.569 126.137Z" fill="#EF4531"/>
<path d="M354.367 71.0014H503.248C508.902 71.0014 513.5 66.4027 513.5 60.7491V29.2063C513.5 23.5523 508.902 18.951 503.248 18.951H354.367C348.713 18.951 344.115 23.5523 344.115 29.2063V33.3877L329.965 40.3993C327.828 41.4576 326.5 43.5975 326.5 45.9842C326.5 48.3684 327.828 50.5078 329.965 51.5661L344.115 58.5804V60.7487C344.115 66.4027 348.713 71.0014 354.367 71.0014ZM331.927 47.6091C331.015 47.1578 330.917 46.3206 330.917 45.9842C330.917 45.6449 331.015 44.808 331.927 44.3563L347.304 36.7381C348.057 36.3669 348.532 35.5992 348.532 34.7594V29.2063C348.532 25.9882 351.149 23.3682 354.367 23.3682H503.248C506.466 23.3682 509.083 25.9882 509.083 29.2063V60.7487C509.083 63.9668 506.466 66.5838 503.248 66.5838H354.367C351.149 66.5838 348.532 63.9668 348.532 60.7487V57.2087C348.532 56.3688 348.057 55.6011 347.304 55.23L331.927 47.6091Z" fill="#EF4531"/>
<path d="M366.359 59.285C367.579 59.285 368.568 58.2959 368.568 57.0764C368.568 52.1846 372.548 48.2043 377.44 48.2043C382.34 48.2043 386.33 52.1846 386.33 57.0764C386.33 58.2959 387.319 59.285 388.538 59.285C389.758 59.285 390.747 58.2959 390.747 57.0764C390.747 52.0552 387.911 47.7283 383.785 45.4687C385.287 43.8951 386.223 41.7789 386.223 39.4387C386.223 34.6042 382.283 30.6702 377.443 30.6702C372.609 30.6702 368.677 34.6042 368.677 39.4387C368.677 41.7774 369.611 43.8925 371.108 45.4657C366.986 47.7246 364.151 52.0534 364.151 57.0764C364.151 58.2959 365.14 59.285 366.359 59.285ZM377.443 35.0877C379.847 35.0877 381.806 37.0405 381.806 39.4387C381.806 41.837 379.848 43.7872 377.443 43.7872C375.045 43.7872 373.095 41.8373 373.095 39.4387C373.095 37.0402 375.045 35.0877 377.443 35.0877Z" fill="#EF4531"/>
<path d="M404.195 40.057H491.256C492.475 40.057 493.464 39.0678 493.464 37.8484C493.464 36.6289 492.475 35.6398 491.256 35.6398H404.195C402.975 35.6398 401.986 36.6289 401.986 37.8484C401.986 39.0678 402.975 40.057 404.195 40.057Z" fill="#EF4531"/>
<path d="M404.195 54.3155H451.074C452.294 54.3155 453.283 53.3263 453.283 52.1069C453.283 50.8875 452.294 49.8983 451.074 49.8983H404.195C402.975 49.8983 401.986 50.8875 401.986 52.1069C401.986 53.3263 402.975 54.3155 404.195 54.3155Z" fill="#EF4531"/>
<path d="M496.998 197.268H257.356C248.255 197.268 240.853 204.674 240.853 213.775V220.501L218.078 231.791C214.639 233.495 212.5 236.939 212.5 240.781C212.5 244.618 214.639 248.062 218.078 249.766L240.853 261.052V264.542C240.853 273.643 248.256 281.049 257.356 281.049H496.998C506.099 281.049 513.5 273.643 513.5 264.542V213.775C513.5 204.674 506.099 197.268 496.998 197.268ZM506.39 264.542C506.39 269.722 502.178 273.939 496.998 273.939H257.356C252.176 273.939 247.963 269.722 247.963 264.542V258.844C247.963 257.492 247.199 256.256 245.987 255.659L221.235 243.396C219.768 242.67 219.61 241.322 219.61 240.781C219.61 240.235 219.768 238.888 221.235 238.161L245.987 225.893C247.199 225.296 247.963 224.06 247.963 222.708V213.774C247.963 208.594 252.176 204.377 257.356 204.377H496.998C502.178 204.377 506.39 208.594 506.39 213.774V264.542Z" fill="#EF4531"/>
<path d="M304.706 239.95C307.124 237.416 308.632 234.008 308.632 230.241C308.632 222.459 302.29 216.131 294.499 216.131C286.717 216.131 280.39 222.46 280.39 230.241C280.39 234.006 281.893 237.412 284.303 239.946C277.666 243.581 273.104 250.548 273.104 258.631C273.104 260.594 274.696 262.186 276.659 262.186C278.621 262.186 280.214 260.594 280.214 258.631C280.214 250.757 286.62 244.355 294.494 244.355C302.382 244.355 308.803 250.757 308.803 258.631C308.803 260.594 310.395 262.186 312.358 262.186C314.321 262.186 315.913 260.594 315.913 258.631C315.913 250.551 311.348 243.587 304.706 239.95ZM294.5 223.241C298.369 223.241 301.522 226.38 301.522 230.241C301.522 234.102 298.37 237.244 294.5 237.244C290.639 237.244 287.5 234.101 287.5 230.241C287.5 226.38 290.639 223.241 294.5 223.241Z" fill="#EF4531"/>
<path d="M477.694 224.13H337.559C335.596 224.13 334.004 225.723 334.004 227.685C334.004 229.648 335.596 231.24 337.559 231.24H477.694C479.657 231.24 481.249 229.648 481.249 227.685C481.25 225.723 479.657 224.13 477.694 224.13Z" fill="#EF4531"/>
<path d="M413.017 247.081H337.559C335.596 247.081 334.004 248.673 334.004 250.636C334.004 252.599 335.596 254.191 337.559 254.191H413.017C414.98 254.191 416.572 252.599 416.572 250.636C416.572 248.673 414.98 247.081 413.017 247.081Z" fill="#EF4531"/>
</svg>
