<svg width="540" height="300" viewBox="0 0 540 300" fill="none" xmlns="http://www.w3.org/2000/svg">
<rect width="540" height="300" fill="#FFF5ED"/>
<g clip-path="url(#clip0_184_2513)">
<path d="M215.1 94.9H217.133V92.8667C217.141 91.4058 217.932 90.0615 219.205 89.3449C219.983 61.8514 242.495 39.9673 270 39.9673C297.505 39.9673 320.017 61.8514 320.795 89.3449C322.068 90.0615 322.859 91.4058 322.867 92.8667V94.9H324.9C328.269 94.9 331 97.6311 331 101V125.4C331 128.769 328.269 131.5 324.9 131.5H322.867V133.533C322.867 135.779 321.046 137.6 318.8 137.6H308.633C305.264 137.6 302.533 134.869 302.533 131.5V94.9C302.533 91.5704 305.202 88.8555 308.532 88.8C307.478 68.288 290.539 52.1974 270 52.1974C249.461 52.1974 232.522 68.288 231.468 88.8C234.798 88.8555 237.467 91.5704 237.467 94.9V131.5C237.467 134.869 234.736 137.6 231.367 137.6H221.2C218.954 137.6 217.133 135.779 217.133 133.533V131.5H215.1C211.731 131.5 209 128.769 209 125.4V101C209 97.6311 211.731 94.9 215.1 94.9ZM324.9 127.433C326.023 127.433 326.933 126.523 326.933 125.4V101C326.933 99.877 326.023 98.9667 324.9 98.9667H322.867V127.433H324.9ZM306.6 94.9V131.5C306.6 132.623 307.51 133.533 308.633 133.533H318.8V92.8667H308.633C307.51 92.8667 306.6 93.777 306.6 94.9ZM270 48.1333C292.767 48.1711 311.504 66.0588 312.596 88.8H316.716C315.551 63.8462 294.981 44.2133 270 44.2133C245.019 44.2133 224.449 63.8462 223.284 88.8H227.404C228.496 66.0588 247.233 48.1711 270 48.1333ZM221.2 133.533H231.367C232.49 133.533 233.4 132.623 233.4 131.5V94.9C233.4 93.777 232.49 92.8667 231.367 92.8667H221.2V133.533ZM213.067 125.4C213.067 126.523 213.977 127.433 215.1 127.433H217.133V98.9667H215.1C213.977 98.9667 213.067 99.877 213.067 101V125.4Z" fill="#EF4531"/>
<path d="M243.463 74.831C242.675 74.83 241.958 74.3733 241.624 73.6591C241.29 72.945 241.399 72.1021 241.903 71.4964C248.839 63.1368 259.138 58.2999 270 58.2999C280.862 58.2999 291.161 63.1368 298.097 71.4964C298.815 72.3594 298.698 73.6416 297.835 74.3603C296.972 75.079 295.69 74.9621 294.971 74.099C288.808 66.6675 279.655 62.3672 270 62.3672C260.345 62.3672 251.192 66.6675 245.029 74.099C244.642 74.5637 244.068 74.832 243.463 74.831Z" fill="#EF4531"/>
<path d="M247.837 80.3882C246.949 79.7045 246.782 78.4314 247.463 77.5415C252.842 70.5408 261.169 66.4376 269.998 66.4376C278.827 66.4376 287.154 70.5408 292.533 77.5415C293.132 78.4317 292.936 79.6338 292.086 80.2879C291.236 80.942 290.024 80.823 289.317 80.0161C284.708 74.0165 277.572 70.5 270.006 70.5C262.441 70.5 255.305 74.0165 250.696 80.0161C250.011 80.9032 248.738 81.0696 247.849 80.3882H247.837Z" fill="#EF4531"/>
<path d="M249.667 123.367V94.9C249.667 83.6702 258.77 74.5667 270 74.5667C281.23 74.5667 290.333 83.6702 290.333 94.9V123.367C290.321 132.242 284.563 140.089 276.1 142.763V149.8H284.233C287.602 149.8 290.333 152.531 290.333 155.9V159.967C290.333 161.09 289.423 162 288.3 162H251.7C250.577 162 249.667 161.09 249.667 159.967V155.9C249.667 152.531 252.398 149.8 255.767 149.8H263.9V142.763C255.436 140.089 249.679 132.242 249.667 123.367ZM270 78.6333C261.02 78.6434 253.743 85.9203 253.733 94.9H263.9C265.023 94.9 265.933 95.8103 265.933 96.9333C265.933 98.0563 265.023 98.9667 263.9 98.9667H253.733V103.033H263.9C265.023 103.033 265.933 103.944 265.933 105.067C265.933 106.19 265.023 107.1 263.9 107.1H253.733V111.167H263.9C265.023 111.167 265.933 112.077 265.933 113.2C265.933 114.323 265.023 115.233 263.9 115.233H253.733V119.3H286.267V115.233H276.1C274.977 115.233 274.067 114.323 274.067 113.2C274.067 112.077 274.977 111.167 276.1 111.167H286.267V107.1H276.1C274.977 107.1 274.067 106.19 274.067 105.067C274.067 103.944 274.977 103.033 276.1 103.033H286.267V98.9667H276.1C274.977 98.9667 274.067 98.0563 274.067 96.9333C274.067 95.8103 274.977 94.9 276.1 94.9H286.267C286.257 85.9203 278.98 78.6434 270 78.6333ZM286.267 123.367H253.733C253.733 132.35 261.016 139.633 270 139.633C278.984 139.633 286.267 132.35 286.267 123.367ZM253.733 155.9V157.933H286.267V155.9C286.267 154.777 285.356 153.867 284.233 153.867H255.767C254.644 153.867 253.733 154.777 253.733 155.9ZM267.967 149.8H272.033V143.596C270.681 143.735 269.319 143.735 267.967 143.596V149.8Z" fill="#EF4531"/>
</g>
<path d="M322.406 261.338C321.501 261.35 320.621 261.034 319.93 260.449C319.238 259.863 318.782 259.048 318.645 258.152L307.255 189.821L298.984 244.95C298.854 245.818 298.427 246.615 297.777 247.205C297.127 247.796 296.293 248.144 295.416 248.19C294.539 248.237 293.673 247.979 292.964 247.461C292.255 246.943 291.747 246.196 291.525 245.346L283.81 215.778L278.902 226.834C278.601 227.507 278.112 228.078 277.493 228.478C276.875 228.878 276.154 229.09 275.417 229.09H267.125C266.619 229.09 266.135 228.889 265.777 228.531C265.42 228.174 265.219 227.689 265.219 227.183C265.219 226.678 265.42 226.193 265.777 225.835C266.135 225.478 266.619 225.277 267.125 225.277H275.417L280.328 214.221C280.649 213.498 281.186 212.894 281.866 212.49C282.546 212.087 283.334 211.904 284.122 211.969C284.91 212.033 285.658 212.34 286.264 212.849C286.869 213.357 287.301 214.041 287.501 214.806L295.214 244.374L303.485 189.249C303.619 188.351 304.07 187.53 304.755 186.934C305.441 186.339 306.316 186.007 307.225 186C308.133 185.993 309.014 186.31 309.709 186.894C310.404 187.479 310.868 188.292 311.016 189.188L322.406 257.525L332.271 198.334C332.416 197.462 332.86 196.667 333.526 196.086C334.193 195.505 335.04 195.174 335.924 195.149C336.808 195.124 337.673 195.407 338.371 195.949C339.069 196.492 339.557 197.26 339.751 198.122L349.336 240.571L355.081 221.039C355.31 220.261 355.782 219.575 356.427 219.083C357.073 218.591 357.858 218.317 358.67 218.303C359.482 218.288 360.277 218.533 360.94 219.001C361.603 219.47 362.099 220.138 362.356 220.908L366.25 232.591L367.819 227.883C368.072 227.124 368.558 226.464 369.207 225.996C369.857 225.528 370.637 225.277 371.437 225.277H377.688C378.193 225.277 378.678 225.478 379.035 225.835C379.393 226.193 379.594 226.678 379.594 227.183C379.594 227.689 379.393 228.174 379.035 228.531C378.678 228.889 378.193 229.09 377.688 229.09H371.437L369.872 233.798C369.619 234.557 369.133 235.216 368.484 235.684C367.835 236.151 367.056 236.403 366.256 236.403C365.456 236.403 364.676 236.151 364.027 235.684C363.378 235.216 362.893 234.557 362.64 233.798L358.739 222.115L352.994 241.648C352.755 242.458 352.255 243.166 351.571 243.66C350.887 244.155 350.058 244.409 349.214 244.381C348.368 244.363 347.553 244.06 346.9 243.521C346.247 242.982 345.795 242.239 345.617 241.412L336.032 198.971L326.167 258.152C326.03 259.048 325.574 259.863 324.883 260.449C324.192 261.034 323.312 261.35 322.406 261.338Z" fill="url(#paint0_linear_184_2513)"/>
<path d="M217.594 261.338C216.688 261.35 215.808 261.034 215.117 260.449C214.426 259.863 213.97 259.048 213.833 258.152L202.443 189.821L194.172 244.95C194.041 245.818 193.615 246.615 192.965 247.205C192.315 247.796 191.481 248.144 190.604 248.19C189.727 248.237 188.861 247.979 188.152 247.461C187.443 246.943 186.934 246.196 186.712 245.346L178.998 215.778L174.089 226.834C173.788 227.507 173.299 228.078 172.681 228.478C172.062 228.878 171.341 229.09 170.605 229.09H162.312C161.807 229.09 161.322 228.889 160.965 228.531C160.607 228.174 160.406 227.689 160.406 227.183C160.406 226.678 160.607 226.193 160.965 225.835C161.322 225.478 161.807 225.277 162.312 225.277H170.605L175.515 214.221C175.836 213.498 176.374 212.894 177.053 212.49C177.733 212.087 178.522 211.904 179.309 211.969C180.097 212.033 180.846 212.34 181.451 212.849C182.056 213.357 182.489 214.041 182.688 214.806L190.401 244.374L198.672 189.249C198.807 188.351 199.257 187.53 199.943 186.934C200.628 186.339 201.504 186.007 202.412 186C203.32 185.993 204.201 186.31 204.896 186.894C205.591 187.479 206.055 188.292 206.204 189.188L217.594 257.525L227.459 198.334C227.604 197.462 228.047 196.667 228.714 196.086C229.38 195.505 230.228 195.174 231.112 195.149C231.995 195.124 232.86 195.407 233.558 195.949C234.257 196.492 234.744 197.26 234.939 198.122L244.523 240.571L250.269 221.039C250.498 220.261 250.969 219.575 251.615 219.083C252.26 218.591 253.046 218.317 253.858 218.303C254.669 218.288 255.464 218.533 256.127 219.001C256.79 219.47 257.286 220.138 257.543 220.908L261.438 232.591L263.006 227.883C263.26 227.124 263.745 226.464 264.395 225.996C265.044 225.528 265.824 225.277 266.624 225.277H272.875C273.381 225.277 273.865 225.478 274.223 225.835C274.58 226.193 274.781 226.678 274.781 227.183C274.781 227.689 274.58 228.174 274.223 228.531C273.865 228.889 273.381 229.09 272.875 229.09H266.624L265.059 233.798C264.806 234.557 264.32 235.216 263.672 235.684C263.023 236.151 262.243 236.403 261.443 236.403C260.643 236.403 259.864 236.151 259.215 235.684C258.566 235.216 258.08 234.557 257.827 233.798L253.927 222.115L248.181 241.648C247.943 242.458 247.442 243.166 246.758 243.66C246.074 244.155 245.245 244.409 244.401 244.381C243.555 244.363 242.74 244.06 242.087 243.521C241.435 242.982 240.983 242.239 240.804 241.412L231.22 198.971L221.355 258.152C221.218 259.048 220.762 259.863 220.07 260.449C219.379 261.034 218.499 261.35 217.594 261.338Z" fill="url(#paint1_linear_184_2513)"/>
<defs>
<linearGradient id="paint0_linear_184_2513" x1="400.406" y1="224.5" x2="145.406" y2="228.5" gradientUnits="userSpaceOnUse">
<stop stop-color="white" stop-opacity="0"/>
<stop offset="0.195505" stop-color="#EF4531"/>
<stop offset="0.857855" stop-color="#EF4531"/>
<stop offset="1" stop-color="white" stop-opacity="0"/>
</linearGradient>
<linearGradient id="paint1_linear_184_2513" x1="400.406" y1="224.5" x2="145.406" y2="228.5" gradientUnits="userSpaceOnUse">
<stop stop-color="white" stop-opacity="0"/>
<stop offset="0.195505" stop-color="#EF4531"/>
<stop offset="0.857855" stop-color="#EF4531"/>
<stop offset="1" stop-color="white" stop-opacity="0"/>
</linearGradient>
<clipPath id="clip0_184_2513">
<rect width="122" height="122" fill="white" transform="matrix(-1 0 0 1 331 40)"/>
</clipPath>
</defs>
</svg>
