<svg width="540" height="300" viewBox="0 0 540 300" fill="none" xmlns="http://www.w3.org/2000/svg">
<rect width="540" height="300" fill="#FFF5ED"/>
<path d="M121.994 109.314C120.234 107.831 117.605 108.055 116.123 109.815C114.64 111.574 114.864 114.203 116.623 115.686C121.208 119.55 123.333 124.443 123.333 129.167C123.333 133.891 121.208 138.784 116.623 142.647C114.864 144.13 114.64 146.759 116.123 148.518C117.605 150.278 120.234 150.503 121.994 149.02C128.331 143.678 131.667 136.507 131.667 129.167C131.667 121.826 128.331 114.655 121.994 109.314Z" fill="#EF4531"/>
<path d="M113.518 116.457C111.759 114.974 109.13 115.198 107.647 116.958C106.164 118.717 106.389 121.346 108.148 122.829C110.392 124.72 111.347 127.028 111.347 129.167C111.347 131.305 110.392 133.613 108.148 135.504C106.389 136.987 106.164 139.616 107.647 141.376C109.13 143.135 111.759 143.36 113.518 141.877C117.515 138.508 119.681 133.922 119.681 129.167C119.681 124.411 117.515 119.826 113.518 116.457Z" fill="#EF4531"/>
<path d="M60.8333 129.167C60.8333 117.661 70.1607 108.333 81.6666 108.333C93.1724 108.333 102.5 117.661 102.5 129.167C102.5 140.673 93.1724 150 81.6666 150C70.1607 150 60.8333 140.673 60.8333 129.167Z" fill="#EF4531"/>
<path d="M48.3333 187.5C48.3333 169.09 63.2571 154.167 81.6666 154.167C100.076 154.167 115 169.09 115 187.5C115 189.801 113.135 191.667 110.833 191.667H52.4999C50.1988 191.667 48.3333 189.801 48.3333 187.5Z" fill="#EF4531"/>
<rect x="209" y="50.5" width="291" height="12" rx="6" fill="#EF4531"/>
<rect x="209" y="72.5" width="291" height="6" rx="3" fill="#EF4531"/>
<rect x="209" y="88.5" width="291" height="6" rx="3" fill="#EF4531" fill-opacity="0.6"/>
<rect x="209" y="104.5" width="291" height="6" rx="3" fill="#EF4531" fill-opacity="0.6"/>
<rect x="209" y="120.5" width="291" height="6" rx="3" fill="#EF4531" fill-opacity="0.6"/>
<rect x="209" y="136.5" width="84" height="6" rx="3" fill="#EF4531" fill-opacity="0.6"/>
<rect x="209" y="157.5" width="291" height="12" rx="6" fill="#EF4531" fill-opacity="0.6"/>
<rect x="209" y="179.5" width="291" height="6" rx="3" fill="#EF4531" fill-opacity="0.6"/>
<rect x="209" y="195.5" width="291" height="6" rx="3" fill="#EF4531" fill-opacity="0.6"/>
<rect x="209" y="211.5" width="291" height="6" rx="3" fill="#EF4531" fill-opacity="0.6"/>
<rect x="209" y="227.5" width="291" height="6" rx="3" fill="#EF4531" fill-opacity="0.6"/>
<rect x="209" y="243.5" width="84" height="6" rx="3" fill="#EF4531" fill-opacity="0.6"/>
</svg>
