<svg width="540" height="300" viewBox="0 0 540 300" fill="none" xmlns="http://www.w3.org/2000/svg">
<rect width="540" height="300" fill="#FFF5ED"/>
<g clip-path="url(#clip0_184_1562)">
<path d="M154.221 115C153.521 115 152.804 114.912 152.096 114.725L87.6666 97.4708C83.25 96.2542 80.6166 91.6792 81.775 87.2625L89.9041 56.9625C90.2041 55.85 91.3458 55.2042 92.4541 55.4875C93.5666 55.7833 94.225 56.9292 93.9291 58.0375L85.8041 88.3292C85.225 90.5375 86.55 92.8375 88.7625 93.45L153.167 110.696C155.379 111.279 157.662 109.962 158.237 107.762L161.492 95.7042C161.792 94.5917 162.933 93.9292 164.046 94.2333C165.158 94.5333 165.812 95.6792 165.517 96.7875L162.267 108.829C161.287 112.537 157.912 115 154.221 115Z" fill="#EF4531"/>
<path d="M173.167 90H106.5C101.904 90 98.1667 86.2625 98.1667 81.6666V31.6666C98.1667 27.0708 101.904 23.3333 106.5 23.3333H173.167C177.763 23.3333 181.5 27.0708 181.5 31.6666V81.6666C181.5 86.2625 177.763 90 173.167 90ZM106.5 27.5C104.204 27.5 102.333 29.3708 102.333 31.6666V81.6666C102.333 83.9625 104.204 85.8333 106.5 85.8333H173.167C175.463 85.8333 177.333 83.9625 177.333 81.6666V31.6666C177.333 29.3708 175.463 27.5 173.167 27.5H106.5Z" fill="#EF4531"/>
<path d="M119 52.5C114.404 52.5 110.667 48.7625 110.667 44.1666C110.667 39.5708 114.404 35.8333 119 35.8333C123.596 35.8333 127.333 39.5708 127.333 44.1666C127.333 48.7625 123.596 52.5 119 52.5ZM119 40C116.704 40 114.833 41.8708 114.833 44.1666C114.833 46.4625 116.704 48.3333 119 48.3333C121.296 48.3333 123.167 46.4625 123.167 44.1666C123.167 41.8708 121.296 40 119 40Z" fill="#EF4531"/>
<path d="M100.542 85.5416C100.008 85.5416 99.475 85.3375 99.0667 84.9333C98.2542 84.1208 98.2542 82.8 99.0667 81.9875L118.746 62.3083C121.104 59.95 125.225 59.95 127.583 62.3083L133.442 68.1666L149.658 48.7083C150.837 47.2958 152.571 46.475 154.417 46.4583H154.462C156.287 46.4583 158.017 47.25 159.208 48.6375L181 74.0625C181.75 74.9333 181.65 76.25 180.775 77C179.904 77.75 178.592 77.6541 177.837 76.775L156.046 51.35C155.642 50.8833 155.083 50.625 154.462 50.625C154.029 50.5875 153.267 50.8875 152.862 51.375L135.183 72.5875C134.808 73.0375 134.262 73.3083 133.675 73.3333C133.083 73.375 132.521 73.1416 132.108 72.725L124.637 65.2541C123.85 64.4708 122.479 64.4708 121.692 65.2541L102.012 84.9333C101.608 85.3375 101.075 85.5416 100.542 85.5416Z" fill="#EF4531"/>
</g>
<rect x="40" y="139" width="183" height="12" rx="6" fill="#EF4531"/>
<rect x="40" y="161" width="183" height="6" rx="3" fill="#EF4531"/>
<rect x="40" y="177" width="183" height="6" rx="3" fill="#EF4531"/>
<rect x="40" y="193" width="183" height="6" rx="3" fill="#EF4531"/>
<rect x="40" y="209" width="183" height="6" rx="3" fill="#EF4531"/>
<rect x="40" y="225" width="84" height="6" rx="3" fill="#EF4531"/>
<rect x="292" y="15" width="208" height="12" rx="6" fill="#EF4531"/>
<rect x="292" y="37" width="208" height="6" rx="3" fill="#EF4531"/>
<rect x="292" y="53" width="208" height="6" rx="3" fill="#EF4531"/>
<rect x="292" y="69" width="208" height="6" rx="3" fill="#EF4531"/>
<rect x="292" y="85" width="208" height="6" rx="3" fill="#EF4531"/>
<rect x="292" y="101" width="84" height="6" rx="3" fill="#EF4531"/>
<rect x="292" y="122" width="208" height="12" rx="6" fill="#EF4531"/>
<rect x="292" y="144" width="208" height="6" rx="3" fill="#EF4531"/>
<rect x="292" y="160" width="208" height="6" rx="3" fill="#EF4531"/>
<rect x="292" y="176" width="208" height="6" rx="3" fill="#EF4531"/>
<rect x="292" y="192" width="208" height="6" rx="3" fill="#EF4531"/>
<rect x="292" y="208" width="84" height="6" rx="3" fill="#EF4531"/>
<rect x="292" y="235" width="208" height="49" rx="16" fill="#EF4531"/>
<path d="M305.111 259.487V251.281C305.111 249.14 307.425 247.81 309.273 248.874L316.388 252.984L323.503 257.093C325.351 258.157 325.351 260.83 323.503 261.907L316.388 266.016L309.273 270.126C307.425 271.19 305.111 269.86 305.111 267.719V259.487Z" fill="white"/>
<g clip-path="url(#clip1_184_1562)">
<path d="M343.897 257.124C343.402 257.124 343 257.384 343 257.704V261.296C343 261.616 343.402 261.876 343.897 261.876C344.393 261.876 344.794 261.616 344.794 261.296V257.704C344.794 257.384 344.393 257.124 343.897 257.124Z" fill="white"/>
<path d="M347.45 254.198C346.955 254.198 346.553 254.458 346.553 254.778V264.222C346.553 264.542 346.955 264.802 347.45 264.802C347.946 264.802 348.347 264.542 348.347 264.222V254.778C348.347 254.458 347.946 254.198 347.45 254.198Z" fill="white"/>
<path d="M351.003 255.212C350.507 255.212 350.106 255.472 350.106 255.792V263.208C350.106 263.528 350.507 263.788 351.003 263.788C351.498 263.788 351.9 263.528 351.9 263.208V255.792C351.9 255.472 351.498 255.212 351.003 255.212Z" fill="white"/>
<path d="M354.556 257.124C354.06 257.124 353.659 257.384 353.659 257.704V261.296C353.659 261.616 354.06 261.876 354.556 261.876C355.051 261.876 355.453 261.616 355.453 261.296V257.704C355.453 257.384 355.051 257.124 354.556 257.124Z" fill="white"/>
<path d="M358.118 252.077C357.622 252.077 357.22 252.337 357.22 252.657V266.343C357.22 266.663 357.622 266.923 358.118 266.923C358.613 266.923 359.015 266.663 359.015 266.343V252.657C359.015 252.337 358.613 252.077 358.118 252.077Z" fill="white"/>
<path d="M361.671 254.905C361.175 254.905 360.773 255.164 360.773 255.484V263.515C360.773 263.835 361.175 264.095 361.671 264.095C362.166 264.095 362.568 263.835 362.568 263.515V255.484C362.568 255.164 362.166 254.905 361.671 254.905Z" fill="white"/>
<path d="M365.206 255.873C364.71 255.873 364.308 256.132 364.308 256.452V262.548C364.308 262.868 364.71 263.127 365.206 263.127C365.701 263.127 366.103 262.868 366.103 262.548V256.452C366.103 256.132 365.701 255.873 365.206 255.873Z" fill="white"/>
<path d="M368.794 257.124C368.299 257.124 367.897 257.384 367.897 257.704V261.296C367.897 261.616 368.299 261.876 368.794 261.876C369.29 261.876 369.692 261.616 369.692 261.296V257.704C369.692 257.384 369.29 257.124 368.794 257.124Z" fill="white"/>
<path d="M372.329 255.873C371.834 255.873 371.432 256.132 371.432 256.452V262.548C371.432 262.868 371.834 263.127 372.329 263.127C372.825 263.127 373.227 262.868 373.227 262.548V256.452C373.227 256.132 372.825 255.873 372.329 255.873Z" fill="white"/>
<path d="M375.882 254.905C375.387 254.905 374.985 255.164 374.985 255.484V263.515C374.985 263.835 375.387 264.095 375.882 264.095C376.378 264.095 376.779 263.835 376.779 263.515V255.484C376.779 255.164 376.378 254.905 375.882 254.905Z" fill="white"/>
<path d="M379.444 252.077C378.949 252.077 378.547 252.337 378.547 252.657V266.343C378.547 266.663 378.949 266.923 379.444 266.923C379.94 266.923 380.341 266.663 380.341 266.343V252.657C380.341 252.337 379.94 252.077 379.444 252.077Z" fill="white"/>
<path d="M382.997 255.212C382.502 255.212 382.1 255.472 382.1 255.792V263.208C382.1 263.528 382.502 263.788 382.997 263.788C383.493 263.788 383.894 263.528 383.894 263.208V255.792C383.894 255.472 383.493 255.212 382.997 255.212Z" fill="white"/>
<path d="M386.55 257.124C386.055 257.124 385.653 257.384 385.653 257.704V261.296C385.653 261.616 386.055 261.876 386.55 261.876C387.046 261.876 387.447 261.616 387.447 261.296V257.704C387.447 257.384 387.046 257.124 386.55 257.124Z" fill="white"/>
<path d="M390.103 257.124C389.607 257.124 389.206 257.384 389.206 257.704V261.296C389.206 261.616 389.607 261.876 390.103 261.876C390.598 261.876 391 261.616 391 261.296V257.704C391 257.384 390.598 257.124 390.103 257.124Z" fill="white"/>
</g>
<g clip-path="url(#clip2_184_1562)">
<path d="M395.897 257.124C395.402 257.124 395 257.384 395 257.704V261.296C395 261.616 395.402 261.876 395.897 261.876C396.393 261.876 396.794 261.616 396.794 261.296V257.704C396.794 257.384 396.393 257.124 395.897 257.124Z" fill="white"/>
<path d="M399.45 254.198C398.955 254.198 398.553 254.458 398.553 254.778V264.222C398.553 264.542 398.955 264.802 399.45 264.802C399.946 264.802 400.347 264.542 400.347 264.222V254.778C400.347 254.458 399.946 254.198 399.45 254.198Z" fill="white"/>
<path d="M403.003 255.212C402.507 255.212 402.106 255.472 402.106 255.792V263.208C402.106 263.528 402.507 263.788 403.003 263.788C403.498 263.788 403.9 263.528 403.9 263.208V255.792C403.9 255.472 403.498 255.212 403.003 255.212Z" fill="white"/>
<path d="M406.556 257.124C406.06 257.124 405.659 257.384 405.659 257.704V261.296C405.659 261.616 406.06 261.876 406.556 261.876C407.051 261.876 407.453 261.616 407.453 261.296V257.704C407.453 257.384 407.051 257.124 406.556 257.124Z" fill="white"/>
<path d="M410.118 252.077C409.622 252.077 409.22 252.337 409.22 252.657V266.343C409.22 266.663 409.622 266.923 410.118 266.923C410.613 266.923 411.015 266.663 411.015 266.343V252.657C411.015 252.337 410.613 252.077 410.118 252.077Z" fill="white"/>
<path d="M413.671 254.905C413.175 254.905 412.773 255.164 412.773 255.484V263.515C412.773 263.835 413.175 264.095 413.671 264.095C414.166 264.095 414.568 263.835 414.568 263.515V255.484C414.568 255.164 414.166 254.905 413.671 254.905Z" fill="white"/>
<path d="M417.206 255.873C416.71 255.873 416.308 256.132 416.308 256.452V262.548C416.308 262.868 416.71 263.127 417.206 263.127C417.701 263.127 418.103 262.868 418.103 262.548V256.452C418.103 256.132 417.701 255.873 417.206 255.873Z" fill="white"/>
<path d="M420.794 257.124C420.299 257.124 419.897 257.384 419.897 257.704V261.296C419.897 261.616 420.299 261.876 420.794 261.876C421.29 261.876 421.692 261.616 421.692 261.296V257.704C421.692 257.384 421.29 257.124 420.794 257.124Z" fill="white"/>
<path d="M424.329 255.873C423.834 255.873 423.432 256.132 423.432 256.452V262.548C423.432 262.868 423.834 263.127 424.329 263.127C424.825 263.127 425.227 262.868 425.227 262.548V256.452C425.227 256.132 424.825 255.873 424.329 255.873Z" fill="white"/>
<path d="M427.882 254.905C427.387 254.905 426.985 255.164 426.985 255.484V263.515C426.985 263.835 427.387 264.095 427.882 264.095C428.378 264.095 428.779 263.835 428.779 263.515V255.484C428.779 255.164 428.378 254.905 427.882 254.905Z" fill="white"/>
<path d="M431.444 252.077C430.949 252.077 430.547 252.337 430.547 252.657V266.343C430.547 266.663 430.949 266.923 431.444 266.923C431.94 266.923 432.341 266.663 432.341 266.343V252.657C432.341 252.337 431.94 252.077 431.444 252.077Z" fill="white"/>
<path d="M434.997 255.212C434.502 255.212 434.1 255.472 434.1 255.792V263.208C434.1 263.528 434.502 263.788 434.997 263.788C435.493 263.788 435.894 263.528 435.894 263.208V255.792C435.894 255.472 435.493 255.212 434.997 255.212Z" fill="white"/>
<path d="M438.55 257.124C438.055 257.124 437.653 257.384 437.653 257.704V261.296C437.653 261.616 438.055 261.876 438.55 261.876C439.046 261.876 439.447 261.616 439.447 261.296V257.704C439.447 257.384 439.046 257.124 438.55 257.124Z" fill="white"/>
<path d="M442.103 257.124C441.607 257.124 441.206 257.384 441.206 257.704V261.296C441.206 261.616 441.607 261.876 442.103 261.876C442.598 261.876 443 261.616 443 261.296V257.704C443 257.384 442.598 257.124 442.103 257.124Z" fill="white"/>
</g>
<defs>
<clipPath id="clip0_184_1562">
<rect width="100" height="100" fill="white" transform="translate(81.5 15)"/>
</clipPath>
<clipPath id="clip1_184_1562">
<rect width="48" height="31" fill="white" transform="translate(343 244)"/>
</clipPath>
<clipPath id="clip2_184_1562">
<rect width="48" height="31" fill="white" transform="translate(395 244)"/>
</clipPath>
</defs>
</svg>
