<svg width="48" height="48" viewBox="0 0 48 48" fill="none" xmlns="http://www.w3.org/2000/svg">
<g clip-path="url(#clip0_221_66)">
<path d="M46.4633 34.4419H40.953V16.1813C40.953 15.3327 40.2658 14.6455 39.4172 14.6455C38.5685 14.6455 37.8804 15.3327 37.8804 16.1813V36.2806C37.8804 37.1417 37.0232 37.8694 36.0032 37.8818C35.9943 37.8817 35.9858 37.8805 35.9769 37.8805C35.9602 37.8805 35.944 37.8825 35.9274 37.8831H30.0385C30.0219 37.8825 30.0058 37.8805 29.989 37.8805C29.9722 37.8805 29.9561 37.8825 29.9395 37.8831H24.0489C24.0323 37.8825 24.0162 37.8805 23.9995 37.8805C23.9828 37.8805 23.9667 37.8825 23.9501 37.8831H18.0602C18.0437 37.8825 18.0275 37.8805 18.0108 37.8805C17.9942 37.8805 17.978 37.8825 17.9614 37.8831H12.0716C12.055 37.8825 12.0389 37.8805 12.0222 37.8805C12.0133 37.8805 12.0047 37.8817 11.9959 37.8818C10.975 37.8694 10.1186 37.1417 10.1186 36.2806V11.7228C10.1186 10.8542 10.9906 10.1203 12.0222 10.1203H35.9769C37.0086 10.1203 37.8804 10.8542 37.8804 11.7228V12.024C37.8804 12.8726 38.5685 13.5599 39.4172 13.5599H46.4633C47.3119 13.5599 48 12.8726 48 12.024C48 11.1754 47.312 10.4881 46.4633 10.4881H40.7766C40.3338 8.97181 39.0964 7.7619 37.5135 7.27778V2.40108C37.5135 1.55247 36.8255 0.865203 35.9768 0.865203C35.1282 0.865203 34.4409 1.55247 34.4409 2.40108V7.04856H31.5248V2.40108C31.5248 1.55247 30.8375 0.865203 29.9889 0.865203C29.1403 0.865203 28.4522 1.55247 28.4522 2.40108V7.04856H25.5352V2.40108C25.5352 1.55247 24.8472 0.865203 23.9993 0.865203C23.1514 0.865203 22.4634 1.55247 22.4634 2.40108V7.04856H19.5464V2.40108C19.5464 1.55247 18.8584 0.865203 18.0106 0.865203C17.1627 0.865203 16.4747 1.55247 16.4747 2.40108V7.04856H13.5577V2.40108C13.5577 1.55247 12.8704 0.865203 12.0218 0.865203C11.1732 0.865203 10.4859 1.55247 10.4859 2.40108V7.2775C8.90309 7.76124 7.66665 8.97106 7.22397 10.4873H1.53588C0.688019 10.4873 0 11.1744 0 12.0231C0 12.8717 0.688019 13.559 1.53588 13.559H7.04697V34.4419H1.53588C0.688019 34.4419 0 35.1291 0 35.9777C0 36.8263 0.688019 37.5136 1.53588 37.5136H7.22425C7.66684 39.0298 8.90328 40.2401 10.4863 40.7241V45.5989C10.4863 46.4475 11.1736 47.1348 12.0222 47.1348C12.87 47.1348 13.5581 46.4475 13.5581 45.5989V40.953H16.4751V45.5988C16.4751 46.4474 17.1623 47.1347 18.0109 47.1347C18.8587 47.1347 19.5468 46.4474 19.5468 45.5988V40.953H22.4638V45.5988C22.4638 46.4474 23.1511 47.1347 23.9997 47.1347C24.8483 47.1347 25.5356 46.4474 25.5356 45.5988V40.953H28.4525V45.5988C28.4525 46.4474 29.1406 47.1347 29.9893 47.1347C30.837 47.1347 31.5251 46.4474 31.5251 45.5988V40.953H34.4413V45.5988C34.4413 46.4474 35.1285 47.1347 35.9772 47.1347C36.8258 47.1347 37.5139 46.4474 37.5139 45.5988V40.7239C39.0969 40.2399 40.3332 39.0298 40.7759 37.5136H46.4636C47.3113 37.5136 48.0003 36.8263 48.0003 35.9777C48 35.1291 47.3119 34.4419 46.4633 34.4419Z" fill="#EF4531"/>
<path d="M46.4633 28.4532H43.4848C42.6362 28.4532 41.9489 29.1405 41.9489 29.9891C41.9489 30.8377 42.6362 31.5249 43.4848 31.5249H46.4633C47.311 31.5249 48 30.8377 48 29.9891C48 29.1405 47.3119 28.4532 46.4633 28.4532Z" fill="#EF4531"/>
<path d="M46.4633 22.4637H43.4848C42.6362 22.4637 41.9489 23.151 41.9489 23.9996C41.9489 24.8482 42.6362 25.5355 43.4848 25.5355H46.4633C47.311 25.5355 48 24.8482 48 23.9996C48 23.151 47.3119 22.4637 46.4633 22.4637Z" fill="#EF4531"/>
<path d="M46.4633 16.4751H43.4848C42.6362 16.4751 41.9489 17.1623 41.9489 18.0109C41.9489 18.8595 42.6362 19.5468 43.4848 19.5468H46.4633C47.311 19.5468 48 18.8595 48 18.0109C48 17.1623 47.3119 16.4751 46.4633 16.4751Z" fill="#EF4531"/>
<path d="M1.53588 31.5249H4.5152C5.36297 31.5249 6.05108 30.8377 6.05108 29.9891C6.05108 29.1405 5.36381 28.4532 4.5152 28.4532H1.53588C0.688019 28.4532 0 29.1413 0 29.9891C0 30.8368 0.688019 31.5249 1.53588 31.5249Z" fill="#EF4531"/>
<path d="M1.53588 25.5355H4.5152C5.36297 25.5355 6.05108 24.849 6.05108 24.0004C6.05108 23.1518 5.36381 22.4645 4.5152 22.4645H1.53588C0.688019 22.4645 0 23.1526 0 24.0004C0 24.8482 0.688019 25.5355 1.53588 25.5355Z" fill="#EF4531"/>
<path d="M1.53588 19.5468H4.5152C5.36297 19.5468 6.05108 18.8595 6.05108 18.0109C6.05108 17.1623 5.36381 16.4751 4.5152 16.4751H1.53588C0.688019 16.4751 0 17.1623 0 18.0109C0 18.8595 0.688019 19.5468 1.53588 19.5468Z" fill="#EF4531"/>
<path d="M19.0384 15.9625C18.4053 15.9625 17.837 16.3503 17.6074 16.9401L12.5364 29.9433C12.2286 30.7346 12.6188 31.6248 13.4092 31.9326C14.2005 32.2404 15.0907 31.8494 15.3985 31.0598L16.2031 28.9965H21.8738L22.6784 31.0598C22.9146 31.6672 23.4946 32.0382 24.1094 32.0382C24.2949 32.0382 24.4838 32.0041 24.6676 31.9326C25.4572 31.6247 25.8491 30.7337 25.5404 29.9433L20.4695 16.9401C20.239 16.3503 19.6716 15.9625 19.0384 15.9625ZM17.4009 25.9248L19.0384 21.7257L20.6759 25.9248H17.4009Z" fill="#EF4531"/>
<path d="M32.6922 19.0343C33.54 19.0343 34.229 18.347 34.229 17.4984C34.229 16.6498 33.5409 15.9625 32.6922 15.9625H28.3917C27.5431 15.9625 26.8558 16.6498 26.8558 17.4984C26.8558 18.347 27.5431 19.0343 28.3917 19.0343H29.0058V28.9666H28.3917C27.5431 28.9666 26.8558 29.6538 26.8558 30.5024C26.8558 31.351 27.5431 32.0383 28.3917 32.0383H32.6922C33.54 32.0383 34.229 31.351 34.229 30.5024C34.229 29.6538 33.5409 28.9666 32.6922 28.9666H32.079V19.0343H32.6922Z" fill="#EF4531"/>
</g>
<defs>
<clipPath id="clip0_221_66">
<rect width="48" height="48" fill="white"/>
</clipPath>
</defs>
</svg>
