<svg width="24" height="24" viewBox="0 0 24 24" fill="none" xmlns="http://www.w3.org/2000/svg">
<g clip-path="url(#clip0_204_824)">
<path d="M0.722807 21.0842C1.15614 21.3088 1.68421 21.2702 2.08246 20.9789L10.4807 14.8825L10.4807 17.0772L10.4807 19.914C10.4807 20.4105 10.7596 20.8579 11.2018 21.0842C11.6368 21.3088 12.1649 21.2702 12.5632 20.9789L23.4632 13.0649C23.7982 12.8175 24 12.4246 24 12.0035C24 11.5825 23.8 11.1877 23.4632 10.9439L12.5632 3.02807C12.3386 2.86316 12.0667 2.77368 11.793 2.77368C11.593 2.77368 11.3895 2.82632 11.2018 2.9193C10.7597 3.14562 10.4807 3.6 10.4807 4.08597L10.4807 6.92632L10.4807 9.12632L2.08246 3.02632C1.85614 2.8614 1.58597 2.77193 1.31228 2.77193C1.11404 2.77193 0.910528 2.82456 0.722809 2.91754C0.278949 3.14386 1.54131e-06 3.59825 1.49882e-06 4.08421L1.25051e-06 6.92456L3.63095e-07 17.0754L1.14937e-07 19.914C7.16855e-08 20.4088 0.278948 20.8579 0.722807 21.0842Z" fill="#EF4531"/>
</g>
<defs>
<clipPath id="clip0_204_824">
<rect width="24" height="24" fill="white" transform="translate(24 24) rotate(-180)"/>
</clipPath>
</defs>
</svg>
