<svg width="16" height="12" viewBox="0 0 16 12" fill="none" xmlns="http://www.w3.org/2000/svg">
<path d="M14.5938 0.375H1.40625C0.632438 0.375 0 1.00466 0 1.78125V10.2188C0 10.9956 0.632844 11.625 1.40625 11.625H14.5938C15.3676 11.625 16 10.9953 16 10.2188V1.78125C16 1.00447 15.3673 0.375 14.5938 0.375ZM14.3778 1.3125C13.9232 1.76866 8.58266 7.12656 8.36325 7.34669C8.18 7.5305 7.82009 7.53062 7.63675 7.34669L1.62219 1.3125H14.3778ZM0.9375 10.0464V1.95359L4.97078 6L0.9375 10.0464ZM1.62219 10.6875L5.63263 6.664L6.97278 8.00853C7.52197 8.5595 8.47825 8.55928 9.02725 8.00853L10.3674 6.66403L14.3778 10.6875H1.62219ZM15.0625 10.0464L11.0292 6L15.0625 1.95359V10.0464Z" fill="#637381"/>
</svg>
