<svg width="229" height="156" viewBox="0 0 229 156" fill="none" xmlns="http://www.w3.org/2000/svg">
<rect y="105.914" width="17.164" height="17.164" rx="8.58201" fill="#EF4531" fill-opacity="0.4"/>
<rect y="52.9912" width="17.164" height="17.164" rx="8.58201" fill="#EF4531" fill-opacity="0.4"/>
<rect y="0.0688477" width="17.164" height="17.164" rx="8.58201" fill="#EF4531" fill-opacity="0.4"/>
<rect x="52.9225" y="105.914" width="17.164" height="17.164" rx="8.58201" fill="#EF4531"/>
<rect x="52.9225" y="52.9912" width="17.164" height="17.164" rx="8.58201" fill="#EF4531" fill-opacity="0.4"/>
<rect x="52.9225" y="0.0688477" width="17.164" height="17.164" rx="8.58201" fill="#EF4531" fill-opacity="0.4"/>
<rect x="105.845" y="105.914" width="17.164" height="17.164" rx="8.58201" fill="#EF4531" fill-opacity="0.4"/>
<rect x="105.845" y="52.9912" width="17.164" height="17.164" rx="8.58201" fill="#EF4531" fill-opacity="0.4"/>
<rect x="105.845" y="0.0688477" width="17.164" height="17.164" rx="8.58201" fill="#EF4531" fill-opacity="0.4"/>
<rect x="158.767" y="105.914" width="17.164" height="17.164" rx="8.58201" fill="#EF4531" fill-opacity="0.4"/>
<rect x="158.767" y="52.9912" width="17.164" height="17.164" rx="8.58201" fill="#EF4531"/>
<rect x="158.767" y="0.0688477" width="17.164" height="17.164" rx="8.58201" fill="#EF4531" fill-opacity="0.4"/>
<rect x="211.69" y="105.914" width="17.164" height="17.164" rx="8.58201" fill="#EF4531" fill-opacity="0.4"/>
<rect x="211.69" y="52.9912" width="17.164" height="17.164" rx="8.58201" fill="#EF4531" fill-opacity="0.4"/>
<rect x="211.69" y="0.0688477" width="17.164" height="17.164" rx="8.58201" fill="#EF4531" fill-opacity="0.4"/>
</svg>
