<svg width="16" height="16" viewBox="0 0 16 16" fill="none" xmlns="http://www.w3.org/2000/svg">
<path d="M12.6518 9.91125C12.3238 9.57018 11.9281 9.38783 11.5087 9.38783C11.0928 9.38783 10.6937 9.5668 10.3522 9.90787L9.2835 10.9716C9.19557 10.9243 9.10764 10.8804 9.0231 10.8365C8.90135 10.7757 8.78637 10.7183 8.6883 10.6575C7.68728 10.0227 6.77757 9.19534 5.90506 8.12486C5.48233 7.59131 5.19825 7.14218 4.99196 6.6863C5.26927 6.43303 5.52629 6.16963 5.77655 5.91636C5.87124 5.82181 5.96593 5.72388 6.06062 5.62933C6.7708 4.92018 6.7708 4.00166 6.06062 3.29251L5.13738 2.37061C5.03254 2.26593 4.92433 2.15786 4.82287 2.0498C4.61996 1.84044 4.40691 1.62431 4.18709 1.4217C3.85905 1.09752 3.46676 0.925293 3.05418 0.925293C2.64159 0.925293 2.24254 1.09752 1.90436 1.4217C1.90097 1.42508 1.90097 1.42508 1.89759 1.42845L0.747772 2.58673C0.314898 3.01898 0.0680249 3.54577 0.0139157 4.157C-0.0672481 5.14305 0.223589 6.06157 0.446789 6.66266C0.994645 8.13837 1.81305 9.50602 3.03389 10.9716C4.51513 12.7377 6.29735 14.1324 8.33321 15.1151C9.11103 15.4831 10.1492 15.9188 11.3092 15.9931C11.3802 15.9964 11.4546 15.9998 11.5223 15.9998C12.3035 15.9998 12.9595 15.7195 13.4736 15.1623C13.477 15.1556 13.4837 15.1522 13.4871 15.1455C13.663 14.9327 13.8659 14.7402 14.0789 14.5342C14.2243 14.3958 14.3731 14.2506 14.5186 14.0986C14.8534 13.7508 15.0292 13.3456 15.0292 12.9302C15.0292 12.5115 14.85 12.1096 14.5084 11.7719L12.6518 9.91125ZM13.8625 13.4671C13.8591 13.4671 13.8591 13.4705 13.8625 13.4671C13.7306 13.609 13.5953 13.7373 13.4499 13.8791C13.2301 14.0885 13.0069 14.308 12.7972 14.5545C12.4557 14.9192 12.0532 15.0914 11.5256 15.0914C11.4749 15.0914 11.4208 15.0914 11.3701 15.0881C10.3657 15.0239 9.4323 14.6322 8.73226 14.2979C6.81815 13.3726 5.13738 12.059 3.74069 10.3941C2.58748 9.00624 1.81643 7.72301 1.30577 6.34523C0.991263 5.50438 0.876281 4.84926 0.927009 4.23129C0.960827 3.83619 1.11301 3.50863 1.3937 3.22835L2.5469 2.07682C2.71261 1.92148 2.88847 1.83706 3.06094 1.83706C3.274 1.83706 3.44647 1.96538 3.55469 2.07344C3.55807 2.07682 3.56145 2.0802 3.56483 2.08357C3.77112 2.27606 3.96727 2.47529 4.17356 2.68804C4.2784 2.7961 4.38662 2.90416 4.49483 3.0156L5.41807 3.9375C5.77655 4.29545 5.77655 4.62639 5.41807 4.98434C5.32 5.08227 5.22531 5.1802 5.12724 5.27475C4.84316 5.56517 4.57262 5.83532 4.2784 6.09872C4.27163 6.10547 4.26487 6.10885 4.26149 6.1156C3.97065 6.40602 4.02476 6.68968 4.08563 6.88216C4.08902 6.89229 4.0924 6.90242 4.09578 6.91255C4.33589 7.49338 4.67407 8.04044 5.18811 8.69218L5.19149 8.69556C6.12487 9.84371 7.10899 10.7386 8.19455 11.4241C8.33321 11.5119 8.47524 11.5828 8.61052 11.6504C8.73226 11.7111 8.84724 11.7685 8.94532 11.8293C8.95884 11.8361 8.97237 11.8462 8.9859 11.853C9.10088 11.9104 9.2091 11.9374 9.3207 11.9374C9.60139 11.9374 9.77725 11.7618 9.83474 11.7044L10.9913 10.5495C11.1063 10.4347 11.2889 10.2962 11.502 10.2962C11.7116 10.2962 11.8841 10.4279 11.989 10.5427C11.9923 10.5461 11.9923 10.5461 11.9957 10.5495L13.8591 12.4102C14.2074 12.7546 14.2074 13.1092 13.8625 13.4671Z" fill="#637381"/>
<path d="M8.64752 3.80573C9.53356 3.95431 10.3384 4.37305 10.981 5.01466C11.6235 5.65627 12.0395 6.45998 12.1917 7.34473C12.2289 7.56761 12.4216 7.72294 12.6415 7.72294C12.6685 7.72294 12.6922 7.71957 12.7192 7.71619C12.9695 7.67567 13.1352 7.43928 13.0946 7.18939C12.912 6.11891 12.4047 5.14298 11.6303 4.36967C10.8559 3.59636 9.87851 3.08982 8.80647 2.90747C8.55622 2.86695 8.32287 3.03242 8.27891 3.27893C8.23494 3.52544 8.39727 3.76521 8.64752 3.80573Z" fill="#637381"/>
<path d="M15.9929 7.05794C15.6919 5.29519 14.86 3.69116 13.5817 2.41469C12.3033 1.13821 10.697 0.307495 8.93166 0.00695018C8.68479 -0.0369496 8.45144 0.131896 8.40748 0.37841C8.36689 0.628302 8.5326 0.861308 8.78286 0.905208C10.3588 1.17198 11.7961 1.91828 12.9391 3.0563C14.0822 4.1977 14.8262 5.63288 15.0933 7.20652C15.1305 7.4294 15.3233 7.58474 15.5431 7.58474C15.5702 7.58474 15.5939 7.58136 15.6209 7.57798C15.8678 7.54084 16.0369 7.30445 15.9929 7.05794Z" fill="#637381"/>
</svg>
