<svg width="48" height="48" viewBox="0 0 48 48" fill="none" xmlns="http://www.w3.org/2000/svg">
<g clip-path="url(#clip0_284_48)">
<path d="M24 33.597C29.7587 33.597 34.4437 28.9119 34.4437 23.1532V10.4437C34.4437 4.68506 29.7587 0 24 0C18.2413 0 13.5563 4.68506 13.5563 10.4437V23.1532C13.5563 28.912 18.2413 33.597 24 33.597ZM16.5563 10.4437C16.5563 6.33919 19.8955 3 24 3C28.1045 3 31.4437 6.33919 31.4437 10.4437V23.1532C31.4437 27.2576 28.1045 30.5969 24 30.5969C19.8955 30.5969 16.5563 27.2576 16.5563 23.1532V10.4437ZM41.2115 26.1727C40.509 30.164 38.4048 33.8209 35.2865 36.4698C32.5144 38.8247 29.0855 40.2501 25.5 40.5625V45H35.25C36.0785 45 36.75 45.6715 36.75 46.5C36.75 47.3285 36.0785 48 35.25 48H12.75C11.9215 48 11.25 47.3285 11.25 46.5C11.25 45.6715 11.9215 45 12.75 45H22.5V40.5625C18.9145 40.2501 15.4857 38.8247 12.7135 36.4698C9.59522 33.8209 7.49109 30.164 6.78863 26.1727C6.64509 25.3567 7.18997 24.5789 8.00588 24.4354C8.82169 24.2918 9.59963 24.8368 9.74316 25.6526C10.9644 32.5918 16.9603 37.6282 24 37.6282C31.0397 37.6282 37.0356 32.5917 38.2568 25.6526C38.4004 24.8367 39.1781 24.2917 39.9941 24.4354C40.8101 24.5789 41.355 25.3567 41.2115 26.1727ZM41.2341 10.1032V18.769C41.2341 19.5975 40.5625 20.269 39.7341 20.269C38.9056 20.269 38.2341 19.5975 38.2341 18.769V10.1032C38.2341 9.27478 38.9056 8.60325 39.7341 8.60325C40.5625 8.60325 41.2341 9.27478 41.2341 10.1032ZM48 12.1671V16.7049C48 17.5334 47.3285 18.2049 46.5 18.2049C45.6715 18.2049 45 17.5334 45 16.7049V12.1671C45 11.3386 45.6715 10.6671 46.5 10.6671C47.3285 10.6671 48 11.3386 48 12.1671ZM6.76594 18.7689V10.1032C6.76594 9.27469 7.43747 8.60316 8.26594 8.60316C9.09441 8.60316 9.76594 9.27469 9.76594 10.1032V18.7689C9.76594 19.5974 9.09441 20.2689 8.26594 20.2689C7.43747 20.2689 6.76594 19.5974 6.76594 18.7689ZM3 12.1671V16.7049C3 17.5334 2.32847 18.2049 1.5 18.2049C0.671531 18.2049 0 17.5334 0 16.7049V12.1671C0 11.3386 0.671531 10.6671 1.5 10.6671C2.32847 10.6671 3 11.3386 3 12.1671Z" fill="#EF4531"/>
</g>
<defs>
<clipPath id="clip0_284_48">
<rect width="48" height="48" fill="white"/>
</clipPath>
</defs>
</svg>
