<svg width="68" height="69" viewBox="0 0 68 69" fill="none" xmlns="http://www.w3.org/2000/svg">
<path d="M39.817 12.7949C51.2368 16.5393 56.2751 28.0036 53.615 39.1783C50.9051 50.5539 41.4538 60.614 30.6278 64.7078C28.3719 65.5581 27.3311 62.2355 29.4193 61.2421C38.5404 56.8984 46.236 49.1123 49.2642 39.353C50.6033 35.1231 50.5771 30.5791 49.1893 26.365C47.3953 20.8289 43.1556 17.8182 38.6689 14.6082C37.5888 13.8368 38.7712 12.4585 39.817 12.7949Z" fill="#EF4531"/>
<path d="M29.4128 6.27202C34.7998 6.86597 40.8374 7.14592 45.6193 9.9762C45.7946 10.0687 45.9275 10.225 45.9906 10.4129C46.0537 10.6007 46.0421 10.8057 45.9582 10.9852C45.8743 11.1647 45.7244 11.305 45.5398 11.3771C45.3552 11.4491 45.15 11.4474 44.9666 11.3721C40.2933 9.75888 35.582 9.24915 30.7133 8.92381C31.3192 12.0432 32.4456 15.1433 32.5605 18.3014C32.5722 18.584 32.4832 18.8615 32.3094 19.0847C32.1356 19.3078 31.8883 19.4621 31.6114 19.5199C31.3346 19.5778 31.0462 19.5356 30.7975 19.4008C30.5489 19.2659 30.3562 19.0472 30.2537 18.7836C28.9579 15.2009 28.1686 11.4549 27.9086 7.65389C27.898 7.4589 27.9306 7.26396 28.0042 7.08307C28.0778 6.90219 28.1906 6.73986 28.3344 6.60774C28.4782 6.47562 28.6495 6.377 28.836 6.31895C29.0224 6.2609 29.2194 6.24488 29.4128 6.27202Z" fill="#EF4531"/>
</svg>
