<svg width="503" height="107" viewBox="0 5 503 107" fill="none" xmlns="http://www.w3.org/2000/svg">
<path d="M139.989 66.4115C138.534 66.4115 137.355 65.232 137.355 63.7775V53.2415C137.355 51.7867 138.534 50.6075 139.989 50.6075C141.444 50.6075 142.623 51.7867 142.623 53.2415V63.7775C142.623 65.232 141.444 66.4115 139.989 66.4115Z" fill="#EF4531" fill-opacity="0.5"/>
<path d="M150.525 74.3132C149.07 74.3132 147.891 73.1338 147.891 71.6793V45.3397C147.891 43.8849 149.07 42.7057 150.525 42.7057C151.98 42.7057 153.159 43.8849 153.159 45.3397V71.6793C153.159 73.1341 151.98 74.3132 150.525 74.3132Z" fill="#EF4531" fill-opacity="0.5"/>
<path d="M192.668 74.3131C191.214 74.3131 190.034 73.1337 190.034 71.6791V45.3396C190.034 43.8847 191.214 42.7056 192.668 42.7056C194.123 42.7056 195.302 43.8847 195.302 45.3396V71.6791C195.302 73.1339 194.123 74.3131 192.668 74.3131Z" fill="#EF4531" fill-opacity="0.5"/>
<path d="M161.061 84.8491C159.606 84.8491 158.427 83.6696 158.427 82.2151V34.8039C158.427 33.3491 159.606 32.1699 161.061 32.1699C162.515 32.1699 163.694 33.3491 163.694 34.8039V82.2154C163.694 83.6699 162.515 84.8491 161.061 84.8491Z" fill="#EF4531" fill-opacity="0.5"/>
<path d="M203.204 74.4571C201.75 74.4571 200.57 73.743 200.57 72.8623V44.157C200.57 43.2762 201.75 42.5623 203.204 42.5623C204.659 42.5623 205.838 43.2762 205.838 44.157V72.8625C205.838 73.7431 204.659 74.4571 203.204 74.4571Z" fill="#EF4531" fill-opacity="0.5"/>
<path d="M171.597 74.3132C170.142 74.3132 168.963 73.1338 168.963 71.6793V45.3397C168.963 43.8849 170.142 42.7057 171.597 42.7057C173.051 42.7057 174.23 43.8849 174.23 45.3397V71.6793C174.23 73.1341 173.051 74.3132 171.597 74.3132Z" fill="#EF4531" fill-opacity="0.5"/>
<path d="M182.132 66.4116C180.678 66.4116 179.498 65.2321 179.498 63.7776V53.2417C179.498 51.7868 180.678 50.6077 182.132 50.6077C183.587 50.6077 184.766 51.7868 184.766 53.2417V63.7776C184.766 65.2321 183.587 66.4116 182.132 66.4116Z" fill="#EF4531" fill-opacity="0.5"/>
<path d="M234.812 74.3131C233.357 74.3131 232.178 73.1337 232.178 71.6791V45.3396C232.178 43.8847 233.357 42.7056 234.812 42.7056C236.266 42.7056 237.446 43.8847 237.446 45.3396V71.6791C237.446 73.1339 236.266 74.3131 234.812 74.3131Z" fill="#EF4531" fill-opacity="0.5"/>
<path d="M224.276 84.8492C222.821 84.8492 221.642 83.6697 221.642 82.2152V34.804C221.642 33.3492 222.821 32.17 224.276 32.17C225.73 32.17 226.91 33.3492 226.91 34.804V82.2155C226.91 83.67 225.73 84.8492 224.276 84.8492Z" fill="#EF4531" fill-opacity="0.5"/>
<path d="M213.74 98.019C212.285 98.019 211.106 96.8396 211.106 95.3851V21.634C211.106 20.1792 212.285 19 213.74 19C215.194 19 216.374 20.1792 216.374 21.634V95.3851C216.374 96.8396 215.194 98.019 213.74 98.019Z" fill="#EF4531" fill-opacity="0.5"/>
<path d="M245.348 99C243.893 99 242.714 97.2112 242.714 95.0052V23.0998C242.714 20.8934 243.893 19.105 245.348 19.105C246.802 19.105 247.982 20.8934 247.982 23.0998V95.0057C247.982 97.2116 246.802 99 245.348 99Z" fill="#EF4531" fill-opacity="0.5"/>
<path d="M255.883 74.3132C254.429 74.3132 253.249 73.1338 253.249 71.6793V45.3397C253.249 43.8849 254.429 42.7057 255.883 42.7057C257.338 42.7057 258.517 43.8849 258.517 45.3397V71.6793C258.517 73.1341 257.338 74.3132 255.883 74.3132Z" fill="#EF4531" fill-opacity="0.5"/>
<path d="M266.419 66.4115C264.965 66.4115 263.785 65.232 263.785 63.7775V53.2415C263.785 51.7867 264.965 50.6075 266.419 50.6075C267.874 50.6075 269.053 51.7867 269.053 53.2415V63.7775C269.053 65.232 267.874 66.4115 266.419 66.4115Z" fill="#EF4531" fill-opacity="0.5"/>
<path d="M3.43208 66.9543C1.97728 66.9543 0.798096 65.7748 0.798096 64.3203V53.7844C0.798096 52.3296 1.97728 51.1504 3.43208 51.1504C4.88689 51.1504 6.06607 52.3296 6.06607 53.7844V64.3203C6.06607 65.7748 4.88689 66.9543 3.43208 66.9543Z" fill="#EF4531" fill-opacity="0.5"/>
<path d="M13.968 74.8561C12.5132 74.8561 11.334 73.6766 11.334 72.2221V45.8825C11.334 44.4277 12.5132 43.2485 13.968 43.2485C15.4228 43.2485 16.602 44.4277 16.602 45.8825V72.2221C16.602 73.6769 15.4225 74.8561 13.968 74.8561Z" fill="#EF4531" fill-opacity="0.5"/>
<path d="M56.111 85C54.6562 85 53.4771 82.873 53.4771 80.25V32.75C53.4771 30.1265 54.6562 28 56.111 28C57.5658 28 58.745 30.1265 58.745 32.75V80.25C58.745 82.8735 57.5658 85 56.111 85Z" fill="#EF4531" fill-opacity="0.5"/>
<path d="M24.5034 85.3921C23.0486 85.3921 21.8694 84.2126 21.8694 82.7581V35.3469C21.8694 33.8921 23.0486 32.7129 24.5034 32.7129C25.9582 32.7129 27.1374 33.8921 27.1374 35.3469V82.7583C27.1374 84.2129 25.9582 85.3921 24.5034 85.3921Z" fill="#EF4531" fill-opacity="0.5"/>
<path d="M66.6468 85.3921C65.192 85.3921 64.0128 84.2126 64.0128 82.7581V35.3469C64.0128 33.8921 65.192 32.7129 66.6468 32.7129C68.1013 32.7129 69.2808 33.8921 69.2808 35.3469V82.7583C69.2808 84.2129 68.1013 85.3921 66.6468 85.3921Z" fill="#EF4531" fill-opacity="0.5"/>
<path d="M35.0393 90C33.5845 90 32.4053 88.2554 32.4053 86.104V47.1445C32.4053 44.9927 33.5845 43.2485 35.0393 43.2485C36.4941 43.2485 37.6732 44.9927 37.6732 47.1445V86.104C37.6732 88.2558 36.4941 90 35.0393 90Z" fill="#EF4531" fill-opacity="0.5"/>
<path d="M45.5753 66.9543C44.1205 66.9543 42.9413 65.7748 42.9413 64.3203V53.7844C42.9413 52.3296 44.1205 51.1504 45.5753 51.1504C47.0301 51.1504 48.2093 52.3296 48.2093 53.7844V64.3203C48.2093 65.7748 47.0298 66.9543 45.5753 66.9543Z" fill="#EF4531" fill-opacity="0.5"/>
<path d="M98.2543 74.8561C96.7998 74.8561 95.6204 73.6766 95.6204 72.2221V45.8825C95.6204 44.4277 96.7998 43.2485 98.2543 43.2485C99.7089 43.2485 100.888 44.4277 100.888 45.8825V72.2221C100.888 73.6769 99.7089 74.8561 98.2543 74.8561Z" fill="#EF4531" fill-opacity="0.5"/>
<path d="M87.7185 85.3921C86.2639 85.3921 85.0845 84.2126 85.0845 82.7581V35.3469C85.0845 33.8921 86.2639 32.7129 87.7185 32.7129C89.173 32.7129 90.3524 33.8921 90.3524 35.3469V82.7583C90.3524 84.2129 89.1733 85.3921 87.7185 85.3921Z" fill="#EF4531" fill-opacity="0.5"/>
<path d="M77.1831 98.562C75.7285 98.562 74.5491 97.3825 74.5491 95.928V22.177C74.5491 20.7222 75.7285 19.543 77.1831 19.543C78.6376 19.543 79.817 20.7222 79.817 22.177V95.928C79.817 97.3825 78.6376 98.562 77.1831 98.562Z" fill="#EF4531" fill-opacity="0.5"/>
<path d="M108.79 104C107.336 104 106.156 102.404 106.156 100.436V36.2773C106.156 34.3086 107.336 32.7129 108.79 32.7129C110.245 32.7129 111.424 34.3086 111.424 36.2773V100.436C111.424 102.404 110.245 104 108.79 104Z" fill="#EF4531" fill-opacity="0.5"/>
<path d="M119.326 74.8561C117.872 74.8561 116.692 73.6766 116.692 72.2221V45.8825C116.692 44.4277 117.872 43.2485 119.326 43.2485C120.781 43.2485 121.96 44.4277 121.96 45.8825V72.2221C121.96 73.6769 120.781 74.8561 119.326 74.8561Z" fill="#EF4531" fill-opacity="0.5"/>
<path d="M129.862 81C128.408 81 127.228 78.7723 127.228 76.0251V56.1252C127.228 53.3775 128.408 51.1503 129.862 51.1503C131.317 51.1503 132.496 53.3775 132.496 56.1252V76.0251C132.496 78.7723 131.317 81 129.862 81Z" fill="#EF4531" fill-opacity="0.5"/>
<path d="M373.936 66.9543C372.481 66.9543 371.302 65.7748 371.302 64.3203V53.7844C371.302 52.3296 372.481 51.1504 373.936 51.1504C375.39 51.1504 376.569 52.3296 376.569 53.7844V64.3203C376.569 65.7748 375.39 66.9543 373.936 66.9543Z" fill="#EF4531" fill-opacity="0.5"/>
<path d="M384.472 74.8561C383.017 74.8561 381.838 73.6766 381.838 72.2221V45.8825C381.838 44.4277 383.017 43.2485 384.472 43.2485C385.926 43.2485 387.105 44.4277 387.105 45.8825V72.2221C387.105 73.6769 385.926 74.8561 384.472 74.8561Z" fill="#EF4531" fill-opacity="0.5"/>
<path d="M426.615 74.8562C425.16 74.8562 423.981 73.6768 423.981 72.2222V45.8826C423.981 44.4278 425.16 43.2487 426.615 43.2487C428.07 43.2487 429.249 44.4278 429.249 45.8826V72.2222C429.249 73.677 428.07 74.8562 426.615 74.8562Z" fill="#EF4531" fill-opacity="0.5"/>
<path d="M395.007 85.3922C393.552 85.3922 392.373 84.2127 392.373 82.7582V35.347C392.373 33.8922 393.552 32.713 395.007 32.713C396.462 32.713 397.641 33.8922 397.641 35.347V82.7585C397.641 84.213 396.462 85.3922 395.007 85.3922Z" fill="#EF4531" fill-opacity="0.5"/>
<path d="M437.151 85.3921C435.696 85.3921 434.517 84.2126 434.517 82.7581V35.3469C434.517 33.8921 435.696 32.7129 437.151 32.7129C438.605 32.7129 439.785 33.8921 439.785 35.3469V82.7583C439.785 84.2129 438.605 85.3921 437.151 85.3921Z" fill="#EF4531" fill-opacity="0.5"/>
<path d="M405.543 74.8561C404.088 74.8561 402.909 73.6766 402.909 72.2221V45.8825C402.909 44.4277 404.088 43.2485 405.543 43.2485C406.998 43.2485 408.177 44.4277 408.177 45.8825V72.2221C408.177 73.6769 406.998 74.8561 405.543 74.8561Z" fill="#EF4531" fill-opacity="0.5"/>
<path d="M416.079 66.9543C414.624 66.9543 413.445 65.7748 413.445 64.3203V53.7844C413.445 52.3296 414.624 51.1504 416.079 51.1504C417.534 51.1504 418.713 52.3296 418.713 53.7844V64.3203C418.713 65.7748 417.533 66.9543 416.079 66.9543Z" fill="#EF4531" fill-opacity="0.5"/>
<path d="M468.758 74.8562C467.304 74.8562 466.124 73.6768 466.124 72.2222V45.8826C466.124 44.4278 467.304 43.2487 468.758 43.2487C470.213 43.2487 471.392 44.4278 471.392 45.8826V72.2222C471.392 73.677 470.213 74.8562 468.758 74.8562Z" fill="#EF4531" fill-opacity="0.5"/>
<path d="M458.222 85.3921C456.768 85.3921 455.589 84.2126 455.589 82.7581V35.3469C455.589 33.8921 456.768 32.7129 458.222 32.7129C459.677 32.7129 460.856 33.8921 460.856 35.3469V82.7583C460.856 84.2129 459.677 85.3921 458.222 85.3921Z" fill="#EF4531" fill-opacity="0.5"/>
<path d="M447.686 98.562C446.232 98.562 445.052 97.3825 445.052 95.928V22.177C445.052 20.7222 446.232 19.543 447.686 19.543C449.141 19.543 450.32 20.7222 450.32 22.177V95.928C450.32 97.3825 449.141 98.562 447.686 98.562Z" fill="#EF4531" fill-opacity="0.5"/>
<path d="M479.294 85.3922C477.839 85.3922 476.66 84.2127 476.66 82.7582V35.347C476.66 33.8922 477.839 32.713 479.294 32.713C480.749 32.713 481.928 33.8922 481.928 35.347V82.7585C481.928 84.213 480.749 85.3922 479.294 85.3922Z" fill="#EF4531" fill-opacity="0.5"/>
<path d="M489.83 74.8561C488.375 74.8561 487.196 73.6766 487.196 72.2221V45.8825C487.196 44.4277 488.375 43.2485 489.83 43.2485C491.284 43.2485 492.464 44.4277 492.464 45.8825V72.2221C492.464 73.6769 491.284 74.8561 489.83 74.8561Z" fill="#EF4531" fill-opacity="0.5"/>
<path d="M500.366 66.9545C498.911 66.9545 497.732 65.7751 497.732 64.3206V53.7846C497.732 52.3298 498.911 51.1506 500.366 51.1506C501.82 51.1506 503 52.3298 503 53.7846V64.3206C503 65.7751 501.82 66.9545 500.366 66.9545Z" fill="#EF4531" fill-opacity="0.5"/>
<g filter="url(#filter0_d_204_2105)">
<circle cx="317.281" cy="58.6468" r="51.8675" fill="white" stroke="#EF4531" stroke-width="4"/>
<path d="M300.123 58.4219V39.2196C300.123 34.209 305.539 31.0968 309.865 33.5865L326.515 43.2033L343.165 52.8199C347.491 55.3097 347.491 61.5652 343.165 64.0861L326.515 73.7028L309.865 83.3195C305.539 85.8093 300.123 82.6971 300.123 77.6864V58.4219Z" fill="#EF4531"/>
</g>
<defs>
<filter id="filter0_d_204_2105" x="243.414" y="0.779297" width="147.735" height="147.735" filterUnits="userSpaceOnUse" color-interpolation-filters="sRGB">
<feFlood flood-opacity="0" result="BackgroundImageFix"/>
<feColorMatrix in="SourceAlpha" type="matrix" values="0 0 0 0 0 0 0 0 0 0 0 0 0 0 0 0 0 0 127 0" result="hardAlpha"/>
<feOffset dy="16"/>
<feGaussianBlur stdDeviation="10"/>
<feComposite in2="hardAlpha" operator="out"/>
<feColorMatrix type="matrix" values="0 0 0 0 0.471667 0 0 0 0 0.471667 0 0 0 0 0.471667 0 0 0 0.1 0"/>
<feBlend mode="normal" in2="BackgroundImageFix" result="effect1_dropShadow_204_2105"/>
<feBlend mode="normal" in="SourceGraphic" in2="effect1_dropShadow_204_2105" result="shape"/>
</filter>
</defs>
</svg>
