<svg width="24" height="24" viewBox="0 0 24 24" fill="none" xmlns="http://www.w3.org/2000/svg">
<path d="M19.6785 2.23536C19.2562 1.87945 18.6253 1.93327 18.2694 2.35558C17.9135 2.77789 17.9673 3.40876 18.3896 3.76467C19.4899 4.69194 20 5.86629 20 7.00002C20 8.13375 19.4899 9.3081 18.3896 10.2353C17.9673 10.5913 17.9135 11.2221 18.2694 11.6444C18.6253 12.0667 19.2562 12.1206 19.6785 11.7647C21.1995 10.4828 22 8.76172 22 7.00002C22 5.23832 21.1995 3.51724 19.6785 2.23536Z" fill="#EF4531"/>
<path d="M17.6444 3.94966C17.2221 3.59375 16.5913 3.64757 16.2353 4.06988C15.8794 4.49218 15.9333 5.12306 16.3556 5.47897C16.8941 5.93284 17.1234 6.48675 17.1234 7.00003C17.1234 7.51331 16.8941 8.06721 16.3556 8.52109C15.9333 8.877 15.8794 9.50788 16.2353 9.93018C16.5913 10.3525 17.2221 10.4063 17.6444 10.0504C18.6037 9.24191 19.1234 8.14128 19.1234 7.00003C19.1234 5.85878 18.6037 4.75815 17.6444 3.94966Z" fill="#EF4531"/>
<path d="M5 7C5 4.23858 7.23858 2 10 2C12.7614 2 15 4.23858 15 7C15 9.76142 12.7614 12 10 12C7.23858 12 5 9.76142 5 7Z" fill="#EF4531"/>
<path d="M2 21C2 16.5817 5.58172 13 10 13C14.4183 13 18 16.5817 18 21C18 21.5523 17.5523 22 17 22H3C2.44772 22 2 21.5523 2 21Z" fill="#EF4531"/>
</svg>
