<svg width="40" height="40" viewBox="0 0 40 40" fill="none" xmlns="http://www.w3.org/2000/svg">
<path d="M10.24 31.08C9.79998 31.08 9.43998 30.72 9.43998 30.28V9.72004C9.43998 9.28004 9.79998 8.92004 10.24 8.92004C10.68 8.92004 11.04 9.28004 11.04 9.72004V30.28C11.04 30.72 10.68 31.08 10.24 31.08ZM21.96 30.2C21.52 30.2 21.16 29.84 21.16 29.4V10.6C21.16 10.16 21.52 9.80004 21.96 9.80004C22.4 9.80004 22.76 10.16 22.76 10.6V29.44C22.76 29.84 22.4 30.2 21.96 30.2ZM33.68 28.76C33.24 28.76 32.88 28.4 32.88 27.96V12.04C32.88 11.6 33.24 11.24 33.68 11.24C34.12 11.24 34.48 11.6 34.48 12.04V27.96C34.48 28.4 34.12 28.76 33.68 28.76ZM6.31998 27.84C5.87998 27.84 5.51998 27.48 5.51998 27.04V12.96C5.51998 12.52 5.87998 12.16 6.31998 12.16C6.75998 12.16 7.11998 12.52 7.11998 12.96V27.08C7.11998 27.52 6.75998 27.84 6.31998 27.84ZM14.12 27.68C13.68 27.68 13.32 27.32 13.32 26.88V13.12C13.32 12.68 13.68 12.32 14.12 12.32C14.56 12.32 14.92 12.68 14.92 13.12V26.88C14.92 27.32 14.56 27.68 14.12 27.68ZM25.88 26.52C25.44 26.52 25.08 26.16 25.08 25.72V14.28C25.08 13.84 25.44 13.48 25.88 13.48C26.32 13.48 26.68 13.84 26.68 14.28V25.72C26.68 26.16 26.32 26.52 25.88 26.52ZM37.6 26.4C37.16 26.4 36.8 26.04 36.8 25.6V14.4C36.8 13.96 37.16 13.6 37.6 13.6C38.04 13.6 38.4 13.96 38.4 14.4V25.6C38.4 26.04 38.04 26.4 37.6 26.4ZM18.04 24.64C17.6 24.64 17.24 24.28 17.24 23.84V16.16C17.24 15.72 17.6 15.36 18.04 15.36C18.48 15.36 18.84 15.72 18.84 16.16V23.84C18.84 24.28 18.48 24.64 18.04 24.64ZM2.39998 24.64C1.95998 24.64 1.59998 24.28 1.59998 23.84V16.16C1.59998 15.72 1.95998 15.36 2.39998 15.36C2.83998 15.36 3.19998 15.72 3.19998 16.16V23.84C3.19998 24.28 2.83998 24.64 2.39998 24.64ZM29.76 23.24C29.32 23.24 28.96 22.88 28.96 22.44V17.56C28.96 17.12 29.32 16.76 29.76 16.76C30.2 16.76 30.56 17.12 30.56 17.56V22.48C30.56 22.88 30.2 23.24 29.76 23.24Z" fill="#EF4531"/>
</svg>
