<svg width="48" height="48" viewBox="0 0 48 48" fill="none" xmlns="http://www.w3.org/2000/svg">
<g clip-path="url(#clip0_284_90)">
<path d="M40.9706 31.0294C38.3566 28.4154 35.2452 26.4803 31.8505 25.3089C35.4863 22.8048 37.875 18.6139 37.875 13.875C37.875 6.22434 31.6507 0 24 0C16.3493 0 10.125 6.22434 10.125 13.875C10.125 18.6139 12.5137 22.8048 16.1496 25.3089C12.7549 26.4803 9.6435 28.4154 7.02947 31.0294C2.49647 35.5625 0 41.5894 0 48H3.75C3.75 36.8341 12.8341 27.75 24 27.75C35.1659 27.75 44.25 36.8341 44.25 48H48C48 41.5894 45.5035 35.5625 40.9706 31.0294ZM24 24C18.4171 24 13.875 19.458 13.875 13.875C13.875 8.292 18.4171 3.75 24 3.75C29.5829 3.75 34.125 8.292 34.125 13.875C34.125 19.458 29.5829 24 24 24Z" fill="#EF4531"/>
</g>
<defs>
<clipPath id="clip0_284_90">
<rect width="48" height="48" fill="white"/>
</clipPath>
</defs>
</svg>
